<svg id="SVGDoc3" xmlns="http://www.w3.org/2000/svg" xmlns:xlink="http://www.w3.org/1999/xlink"  viewBox="0 0 414 402">
	<defs>
		<filter id="Filter1028" width="144%" height="148%" x="-12%" y="-14%" filterUnits="objectBoundingBox">
			<feGaussianBlur stdDeviation="0 14" result="FeGaussianBlur1029Out" in="SourceGraphic"></feGaussianBlur>
		</filter>
	</defs>
	<desc>Generated with Avocode.</desc>
	<g>
		<g transform="matrix(6.123233995736766e-17,1,-1,6.123233995736766e-17,0,0)" filter="url(#Filter1028)">
			<g clip-path="url(#clip-AF8EF7DA-0E07-4869-8793-3E77BE149F4A)" transform="matrix(6.123233995736766e-17,-1,1,6.123233995736766e-17,0,0)">
				<title>Mask Copy</title>
				<path d="M1101.00244,531c-72.5105,0 -131.29248,-59.21899 -131.29248,-132.26978c0,-73.05078 58.78198,-132.26978 131.29248,-132.26978zM837.04309,266.46045c72.5105,0 131.29248,59.21899 131.29248,132.26978c0,73.05078 -58.78198,132.26978 -131.29248,132.26978zM544.52502,253.53955c-72.51102,0 -131.29248,-59.21899 -131.29248,-132.26978c0,-73.05078 58.78146,-132.26978 131.29248,-132.26978zM280.5856,-11c72.51108,0 131.29254,59.21899 131.29254,132.26978c0,73.05078 -58.78146,132.26978 -131.29254,132.26978zM1.00388,254.2196c0,-72.48743 59.39059,-131.2196 132.65306,-131.2196c73.26247,0 132.65306,58.73218 132.65306,131.2196zM266.31,-11c0,72.48743 -59.39059,131.24963 -132.65306,131.24963c-73.26247,0 -132.65306,-58.76221 -132.65306,-131.24963zM544.5387,268.50061c0,72.49939 -59.39056,131.24976 -132.65302,131.24976c-73.26248,0 -132.65308,-58.75037 -132.65308,-131.24976zM558.14111,254.2196c0,-72.48743 59.39056,-131.2196 132.65308,-131.2196c73.26245,0 132.65302,58.73218 132.65302,131.2196zM823.4472,-11c0,72.48743 -59.39056,131.24963 -132.65302,131.24963c-73.26251,0 -132.65308,-58.76221 -132.65308,-131.24963zM266.31,398.73022c0,73.05078 -59.39059,132.26978 -132.65306,132.26978c-73.26247,0 -132.65306,-59.21899 -132.65306,-132.26978c0,-73.05078 59.39059,-132.26978 132.65306,-132.26978c73.26247,0 132.65306,59.21899 132.65306,132.26978zM823.4472,398.73022c0,73.05078 -59.39056,132.26978 -132.65302,132.26978c-73.26251,0 -132.65308,-59.21899 -132.65308,-132.26978c0,-73.05078 59.39056,-132.26978 132.65308,-132.26978c73.26245,0 132.65302,59.21899 132.65302,132.26978zM835.68994,121.26978c0,-73.05078 59.39111,-132.26978 132.65308,-132.26978c73.26196,0 132.65308,59.21899 132.65308,132.26978c0,73.05078 -59.39111,132.26978 -132.65308,132.26978c-73.26196,0 -132.65308,-59.21899 -132.65308,-132.26978z" fill="#323235" fill-opacity="1"></path>
			</g>
		</g>
	</g>
</svg>
