<svg class="contact_section__bg_mob" viewBox="0 0 414 315" preserveAspectRatio="xMinYMin slice" version="1.1" xmlns="http://www.w3.org/2000/svg" xmlns:xlink="http://www.w3.org/1999/xlink">
	<title>Combined Shape</title>
	<defs>
		<filter x="-3.0%" y="-10.8%" width="105.9%" height="121.5%" filterUnits="objectBoundingBox" id="filter-3">
			<feGaussianBlur stdDeviation="10 0" in="SourceGraphic"></feGaussianBlur>
		</filter>
	</defs>
	<g id="Page-1" stroke="none" stroke-width="1" fill="none" fill-rule="evenodd">
		<g id="mob-contact" transform="translate(0.000000, -521.000000)" fill="#313236">
			<g id="Combined-Shape-Copy-2" transform="translate(0.000000, 521.000000)">
				<path filter="url(#filter-3)" d="M854.064721,-5.0786802 L854.064721,324.189086 C763.840901,324.189086 690.700508,250.480244 690.700508,159.555203 C690.700508,68.6301622 763.840901,-5.0786802 854.064721,-5.0786802 Z M163.364213,-5.9251269 L163.364213,323.34264 C73.1403938,323.34264 0,249.633797 0,158.708756 C0,67.7837155 73.1403938,-5.9251269 163.364213,-5.9251269 Z M527.336294,-5.9251269 C617.560114,-5.9251269 690.700508,67.7837155 690.700508,158.708756 C690.700508,249.633797 617.560114,323.34264 527.336294,323.34264 L527.336294,-5.9251269 Z M510.40736,-5.0786802 C510.40736,81.1826838 442.856808,151.828214 357.256048,157.867063 L357.256048,157.857557 C442.856808,163.896406 510.40736,234.541935 510.40736,320.803299 L180.293147,320.803299 C180.293147,234.541731 247.84402,163.896071 333.445068,157.857514 L333.445068,157.867106 C247.84402,151.828549 180.293147,81.1828883 180.293147,-5.0786802 L510.40736,-5.0786802 Z M1201.10787,-5.9251269 C1201.10787,80.3384585 1133.55384,150.985405 1047.94994,157.021082 L1047.94994,157.010643 C1133.55384,163.04632 1201.10787,233.693267 1201.10787,319.956853 L870.993655,319.956853 C870.993655,233.693137 938.547892,163.046106 1024.15197,157.010616 L1024.15197,157.02111 C938.547892,150.98562 870.993655,80.3385893 870.993655,-5.9251269 L1201.10787,-5.9251269 Z" id="Combined-Shape"></path>
			</g>
		</g>
	</g>
</svg>
