<svg class="contact_section__bg_desk" viewBox="0 0 1105 376" preserveAspectRatio="xMinYMin slice" version="1.1" xmlns="http://www.w3.org/2000/svg" xmlns:xlink="http://www.w3.org/1999/xlink">
<title>cont-2</title>
<defs>
	<filter x="-2.7%" y="-2.7%" width="105.3%" height="105.3%" filterUnits="objectBoundingBox" id="filter-1">
		<feGaussianBlur stdDeviation="0 14" in="SourceGraphic"></feGaussianBlur>
	</filter>
</defs>
<g id="Page-1" stroke="none" stroke-width="1" fill="none" fill-rule="evenodd">
	<g id="Contact-" transform="translate(-235.000000, -560.000000)" fill="#323235">
		<g id="Combined-Shape" transform="translate(235.000000, 560.000000)">
			<path d="M3.5,1188.5 C108.985882,1188.5 194.5,1273.11789 194.5,1377.5 L-187.5,1377.5 C-187.5,1273.11789 -101.985882,1188.5 3.5,1188.5 Z M1395,998 L1395,1377 C1290.61789,1377 1206,1292.15826 1206,1187.5 C1206,1082.84174 1290.61789,998 1395,998 Z M1017,998 C1121.38211,998 1206,1082.84174 1206,1187.5 C1206,1292.15826 1121.38211,1377 1017,1377 L1017,998 Z M593,998 L593,1377 C488.618682,1377 404,1292.15826 404,1187.5 C404,1082.84174 488.618682,998 593,998 Z M212,998 C316.381318,998 401,1082.84174 401,1187.5 C401,1292.15826 316.381318,1377 212,1377 L212,998 Z M804.5,997.5 C909.986686,997.5 995.5,1082.34174 995.5,1187 C995.5,1291.65826 909.986686,1376.5 804.5,1376.5 C699.013314,1376.5 613.5,1291.65826 613.5,1187 C613.5,1082.34174 699.013314,997.5 804.5,997.5 Z M194.5,996.5 C194.5,1100.88211 108.985882,1185.5 3.5,1185.5 C-101.985882,1185.5 -187.5,1100.88211 -187.5,996.5 L194.5,996.5 Z M1204.5,596.5 C1309.98669,596.5 1395.5,681.341743 1395.5,786 C1395.5,890.658257 1309.98669,975.5 1204.5,975.5 C1099.01331,975.5 1013.5,890.658257 1013.5,786 C1013.5,681.341743 1099.01331,596.5 1204.5,596.5 Z M614,596 C718.382114,596 803,680.841743 803,785.5 C803,890.158257 718.382114,975 614,975 L614,596 Z M992,596 L992,975 C887.617886,975 803,890.158257 803,785.5 C803,680.841743 887.617886,596 992,596 Z M594.5,598.5 C594.5,696.293289 519.44083,776.738724 423.220278,786.504855 C519.44083,796.261276 594.5,876.706711 594.5,974.5 L212.5,974.5 C212.5,876.706711 287.55917,796.261276 383.779722,786.495145 C287.55917,776.738724 212.5,696.293289 212.5,598.5 L594.5,598.5 Z M194,595 L194,974 C89.6186821,974 5,889.158257 5,784.5 C5,679.841743 89.6186821,595 194,595 Z M-187,595 C-82.6186821,595 2,679.841743 2,784.5 C2,889.158257 -82.6186821,974 -187,974 L-187,595 Z M804.5,197.5 C909.986686,197.5 995.5,282.341743 995.5,387 C995.5,491.658257 909.986686,576.5 804.5,576.5 C699.013314,576.5 613.5,491.658257 613.5,387 C613.5,282.341743 699.013314,197.5 804.5,197.5 Z M194.5,198.5 C194.5,298.252468 116.403253,379.955029 17.4122209,387.006283 L17.4122209,386.993717 C116.403253,394.044971 194.5,475.747532 194.5,575.5 L-187.5,575.5 C-187.5,475.747532 -109.403253,394.044971 -10.4122209,386.993717 L-10.4122209,387.006283 C-109.403253,379.955029 -187.5,298.252468 -187.5,198.5 L194.5,198.5 Z M1394.5,198.5 C1394.5,298.252614 1316.40376,379.955268 1217.41188,387.006314 L1217.41188,386.993686 C1316.40376,394.044732 1394.5,475.747386 1394.5,575.5 L1012.5,575.5 C1012.5,475.747386 1090.59624,394.044732 1189.58812,386.993686 L1189.58812,387.006314 C1090.59624,379.955268 1012.5,298.252614 1012.5,198.5 L1394.5,198.5 Z M403.5,196.5 C508.985882,196.5 594.5,281.341743 594.5,386 C594.5,490.658257 508.985882,575.5 403.5,575.5 C298.014118,575.5 212.5,490.658257 212.5,386 C212.5,281.341743 298.014118,196.5 403.5,196.5 Z M805.5,-12.5 C910.986686,-12.5 996.5,72.1178863 996.5,176.5 L614.5,176.5 C614.5,72.1178863 700.013314,-12.5 805.5,-12.5 Z M594.5,-203.5 L594.5,175.5 C490.118682,175.5 405.5,90.6582568 405.5,-14 C405.5,-118.658257 490.118682,-203.5 594.5,-203.5 Z M4.5,-203.5 C109.985882,-203.5 195.5,-118.658257 195.5,-14 C195.5,90.6582568 109.985882,175.5 4.5,175.5 C-100.985882,175.5 -186.5,90.6582568 -186.5,-14 C-186.5,-118.658257 -100.985882,-203.5 4.5,-203.5 Z M212,-204 C316.381318,-204 401,-119.158257 401,-14.5 C401,90.1582568 316.381318,175 212,175 L212,-204 Z M1395,-204 L1395,175 C1290.61789,175 1206,90.1582568 1206,-14.5 C1206,-119.158257 1290.61789,-204 1395,-204 Z M1017,-204 C1121.38211,-204 1206,-119.158257 1206,-14.5 C1206,90.1582568 1121.38211,175 1017,175 L1017,-204 Z M996.5,-204.5 C996.5,-100.117886 910.986686,-15.5 805.5,-15.5 C700.013314,-15.5 614.5,-100.117886 614.5,-204.5 L996.5,-204.5 Z" id="cont-2" filter="url(#filter-1)" transform="translate(604.000000, 586.500000) rotate(90.000000) translate(-604.000000, -586.500000) "></path>
		</g>
	</g>
</g>
</svg>
