<svg class="contact_section_v2__bg_svg contact_section_v2__bg_svg--v2_mod partnerBg2" preserveAspectRatio="xMinYMin slice" viewBox="0 0 1400 580" version="1.1" xmlns="http://www.w3.org/2000/svg" xmlns:xlink="http://www.w3.org/1999/xlink">
<defs>
	<filter x="-2.7%" y="-5.4%" width="105.3%" height="110.8%" filterUnits="objectBoundingBox" id="filter-partnerBg2">
		<feGaussianBlur stdDeviation="14 0" in="SourceGraphic"></feGaussianBlur>
	</filter>
</defs>
<g stroke="none" stroke-width="1" fill="none" fill-rule="evenodd">
	<g fill="#323232">
		<path d="M1395,399 L1395,781 C1290.61868,781 1206,695.486686 1206,590 C1206,484.513314 1290.61868,399 1395,399 Z M1015,399 C1119.38132,399 1204,484.513314 1204,590 C1204,695.486686 1119.38132,781 1015,781 L1015,399 Z M2.5,399 C108.262829,399 194,484.513314 194,590 C194,695.486686 108.262829,781 2.5,781 C-103.262829,781 -189,695.486686 -189,590 C-189,484.513314 -103.262829,399 2.5,399 Z M804.5,399 C910.262829,399 996,484.513314 996,590 C996,695.486686 910.262829,781 804.5,781 C698.737171,781 613,695.486686 613,590 C613,484.513314 698.737171,399 804.5,399 Z M594,403 C594,507.382114 508.262829,592 402.5,592 C296.737171,592 211,507.382114 211,403 L594,403 Z M594,0 L594,382 C489.617886,382 405,296.486686 405,191 C405,85.5133137 489.617886,0 594,0 Z M214,0 C318.382114,0 403,85.5133137 403,191 C403,296.486686 318.382114,382 214,382 L214,0 Z M2.5,193 C108.262829,193 194,277.617886 194,382 L-189,382 C-189,277.617886 -103.262829,193 2.5,193 Z M804.5,193 C910.262829,193 996,277.617886 996,382 L613,382 C613,277.617886 698.737171,193 804.5,193 Z M1203.5,0 C1309.26202,0 1395,85.5133137 1395,191 C1395,296.486686 1309.26202,382 1203.5,382 C1097.73798,382 1012,296.486686 1012,191 C1012,85.5133137 1097.73798,0 1203.5,0 Z M194,0 C194,104.382114 108.262829,189 2.5,189 C-103.262829,189 -189,104.382114 -189,0 L194,0 Z M996,0 C996,104.382114 910.262829,189 804.5,189 C698.737171,189 613,104.382114 613,0 L996,0 Z" id="part-1" filter="url(#filter-partnerBg2)"></path>
	</g>
</g>
</svg>
