<svg class="contact_section__bg_mob" viewBox="0 0 414 285" version="1.1" xmlns="http://www.w3.org/2000/svg" xmlns:xlink="http://www.w3.org/1999/xlink">
	<title>Combined Shape</title>
	<defs>
		<filter x="-2.6%" y="-5.3%" width="105.2%" height="110.5%" filterUnits="objectBoundingBox" id="filter-7">
			<feGaussianBlur stdDeviation="10 0" in="SourceGraphic"></feGaussianBlur>
		</filter>
	</defs>
	<g id="Page-1" stroke="none" stroke-width="1" fill="none" fill-rule="evenodd">
		<g id="mob-contact" transform="translate(0.000000, -121.000000)" fill="#F2F2F2">
			<g id="Combined-Shape-Copy" transform="translate(510.015863, 298.330584) scale(-1, 1) translate(-510.015863, -298.330584) translate(0.031726, 121.000000)">
				<path d="M492.63198,8.46446701 L492.63198,337.732234 C402.408848,337.732234 329.267766,264.023391 329.267766,173.09835 C329.267766,82.1733094 402.408848,8.46446701 492.63198,8.46446701 Z M165.903553,8.46446701 C256.126685,8.46446701 329.267766,82.1733094 329.267766,173.09835 C329.267766,264.023391 256.126685,337.732234 165.903553,337.732234 L165.903553,8.46446701 Z M-16.928934,174.36802 C74.2291523,174.36802 148.128173,247.508414 148.128173,337.732234 L-181.986041,337.732234 C-181.986041,247.508414 -108.08702,174.36802 -16.928934,174.36802 Z M675.464467,8.46446701 C766.623248,8.46446701 840.521574,82.1733094 840.521574,173.09835 C840.521574,264.023391 766.623248,337.732234 675.464467,337.732234 C584.305686,337.732234 510.40736,264.023391 510.40736,173.09835 C510.40736,82.1733094 584.305686,8.46446701 675.464467,8.46446701 Z M1022.50761,174.36802 C1113.6657,174.36802 1187.56472,247.508414 1187.56472,337.732234 L857.450508,337.732234 C857.450508,247.508414 931.349528,174.36802 1022.50761,174.36802 Z M148.128173,11.0038071 C148.128173,101.227627 74.2291523,174.36802 -16.928934,174.36802 C-108.08702,174.36802 -181.986041,101.227627 -181.986041,11.0038071 L148.128173,11.0038071 Z M1187.56472,11.0038071 C1187.56472,101.227627 1113.6657,174.36802 1022.50761,174.36802 C931.349528,174.36802 857.450508,101.227627 857.450508,11.0038071 L1187.56472,11.0038071 Z M675.464467,-170.135787 C766.623248,-170.135787 840.521574,-96.995393 840.521574,-6.7715736 L510.40736,-6.7715736 C510.40736,-96.995393 584.305686,-170.135787 675.464467,-170.135787 Z M146.435279,-336.885787 L146.435279,-7.6180203 C56.2121476,-7.6180203 -16.928934,-81.3268627 -16.928934,-172.251904 C-16.928934,-263.176944 56.2121476,-336.885787 146.435279,-336.885787 Z M-181.986041,-336.885787 C-91.762909,-336.885787 -18.6218274,-263.176944 -18.6218274,-172.251904 C-18.6218274,-81.3268627 -91.762909,-7.6180203 -181.986041,-7.6180203 L-181.986041,-336.885787 Z M328.42132,-336.885787 C419.579406,-336.885787 493.478426,-263.176944 493.478426,-172.251904 C493.478426,-81.3268627 419.579406,-7.6180203 328.42132,-7.6180203 C237.263233,-7.6180203 163.364213,-81.3268627 163.364213,-172.251904 C163.364213,-263.176944 237.263233,-336.885787 328.42132,-336.885787 Z M857.450508,-336.885787 C947.673639,-336.885787 1020.81472,-263.176944 1020.81472,-172.251904 C1020.81472,-81.3268627 947.673639,-7.6180203 857.450508,-7.6180203 L857.450508,-336.885787 Z M840.521574,-336.885787 C840.521574,-246.661967 766.623248,-173.521574 675.464467,-173.521574 C584.305686,-173.521574 510.40736,-246.661967 510.40736,-336.885787 L840.521574,-336.885787 Z" id="Combined-Shape" transform="translate(502.789340, 0.423223) scale(-1, 1) translate(-502.789340, -0.423223) " filter="url(#filter-7)"></path>
			</g>
		</g>
	</g>
</svg>
