<svg class="contact_section__bg_desk" viewBox="0 0 1100 379" version="1.1" xmlns="http://www.w3.org/2000/svg" xmlns:xlink="http://www.w3.org/1999/xlink">
<title>cont-1</title>
<defs>
	<filter x="-5.4%" y="-2.7%" width="110.7%" height="105.3%" filterUnits="objectBoundingBox" id="filter-contact">
		<feGaussianBlur stdDeviation="0 14" in="SourceGraphic"></feGaussianBlur>
	</filter>
</defs>
<g id="Page-1" stroke="none" stroke-width="1" fill="none" fill-rule="evenodd">
	<g id="Contact-" transform="translate(-235.000000, -157.000000)" fill="#F2F2F2">
		<g id="Combined-Shape" transform="translate(837.500000, 351.500000) scale(-1, 1) translate(-837.500000, -351.500000) translate(235.000000, 157.000000)">
			<path d="M803,807 C908.485882,807 994,891.617886 994,996 L612,996 C612,891.617886 697.514118,807 803,807 Z M592.5,614.5 L592.5,993.5 C488.118682,993.5 403.5,908.658257 403.5,804 C403.5,699.341743 488.118682,614.5 592.5,614.5 Z M994,615 C994,719.382114 908.485882,804 803,804 C697.514118,804 612,719.382114 612,615 L994,615 Z M993.5,213.5 L993.5,592.5 C889.118682,592.5 804.5,507.658257 804.5,403 C804.5,298.341743 889.118682,213.5 993.5,213.5 Z M612.5,213.5 C716.881318,213.5 801.5,298.341743 801.5,403 C801.5,507.658257 716.881318,592.5 612.5,592.5 L612.5,213.5 Z M594,215 C594,312.793289 518.94083,393.238724 422.720278,403.004855 C518.94083,412.761276 594,493.206711 594,591 L212,591 C212,493.206711 287.05917,412.761276 383.279722,402.995145 C287.05917,393.238724 212,312.793289 212,215 L594,215 Z M994,-183 C994,-83.2475322 915.903253,-1.54497117 816.912221,5.50628348 L816.912221,5.49371652 C915.903253,12.5449712 994,94.2475322 994,194 L612,194 C612,94.2475322 690.096747,12.5449712 789.087779,5.49371652 L789.087779,5.50628348 C690.096747,-1.54497117 612,-83.2475322 612,-183 L994,-183 Z M403,-187 C508.485882,-187 594,-102.158257 594,2.5 C594,107.158257 508.485882,192 403,192 C297.514118,192 212,107.158257 212,2.5 C212,-102.158257 297.514118,-187 403,-187 Z M804,-585 C909.485882,-585 995,-500.158257 995,-395.5 C995,-290.841743 909.485882,-206 804,-206 C698.514118,-206 613,-290.841743 613,-395.5 C613,-500.158257 698.514118,-585 804,-585 Z M594,-587 L594,-208 C489.618682,-208 405,-292.841743 405,-397.5 C405,-502.158257 489.618682,-587 594,-587 Z M211.5,-587.5 C315.881318,-587.5 400.5,-502.658257 400.5,-398 C400.5,-293.341743 315.881318,-208.5 211.5,-208.5 L211.5,-587.5 Z" id="cont-1" filter="url(#filter-contact)" transform="translate(603.250000, 204.250000) scale(-1, 1) rotate(90.000000) translate(-603.250000, -204.250000) "></path>
		</g>
	</g>
</g>
</svg>
