<svg class="about__bg_svg aboutTextBlur2" version="1.1" xmlns="http://www.w3.org/2000/svg" xmlns:xlink="http://www.w3.org/1999/xlink" x="0px" y="0px"
		 viewBox="0 0 1230 590" preserveAspectRatio="xMinYMin slice" xml:space="preserve">
<style type="text/css">
	.st0{fill-rule:evenodd;clip-rule:evenodd;fill:#F2F2F2;}
</style>
    <defs>
        <filter x="-3.1%" y="-6.3%" width="106.2%" height="112.5%" filterUnits="objectBoundingBox" id="filter-aboutTextBlur2">
            <feGaussianBlur stdDeviation="14 0" in="SourceGraphic"></feGaussianBlur>
        </filter>
    </defs>
			<path id="phil-1" filter="url(#filter-aboutTextBlur2)" class="st0" d="M166,256.5c91.4,0,165.5,74.3,165.5,166s-74.1,166-165.5,166S0.5,514.2,0.5,422.5
				S74.6,256.5,166,256.5z M508,423c91.4,0,165.5,73.9,165.5,165h-331C342.5,496.9,416.6,423,508,423z M1027,256v331
				c-91.1,0-165-74.1-165-165.5S935.9,256,1027,256z M697,256c90.2,0,163.5,72.6,165,162.8l0,2.7l0,0c0,91.4-73.9,165.5-165,165.5
				V256z M673,256c0,91.1-74.1,165-165.5,165S342,347.1,342,256H673z M0,248V-83c90.2,0,163.5,72.6,165,162.8l0,2.7l0-2.7
				C166.5-10.4,239.8-83,330-83v331c-91.1,0-165-74.1-165-165.5C165,173.9,91.1,248,0,248z M1193-83c91.7,0,166,74.1,166,165.5
				S1284.7,248,1193,248s-166-74.1-166-165.5S1101.3-83,1193-83z M861,83c91.7,0,166,73.9,166,165H695C695,156.9,769.3,83,861,83z
				 M513-83c91.7,0,166,74.1,166,165.5S604.7,248,513,248S347,173.9,347,82.5S421.3-83,513-83z M1027-82c0,91.1-74.3,165-166,165
				S695,9.1,695-82H1027z"/>
			<path id="Combined-Shape3" class="st0" d="M1210,421.5c91.7,0,166,73.9,166,165h-332C1044,495.4,1118.3,421.5,1210,421.5z
				 M1376,255.5c0,91.1-74.3,165-166,165s-166-73.9-166-165H1376z"/>
</svg>
