<svg xmlns="http://www.w3.org/2000/svg" width="583" height="544" viewBox="0 0 583 544"><defs><filter id="qubha" width="148%" height="148%" x="-14%" y="-14%" filterUnits="objectBoundingBox"><feGaussianBlur in="SourceGraphic" result="FeGaussianBlur1017Out" stdDeviation="11.1578950881958 0"/></filter></defs><g><g filter="url(#qubha)"><g><path fill="#f2f2f2" fill-opacity=".1" d="M286.003 412c0 72.902-59.227 132-132.287 132S21.43 484.902 21.43 412s59.227-132 132.286-132c73.06 0 132.287 59.098 132.287 132zM299.12 0c72.609 0 131.49 59.098 131.49 132S371.73 264 299.12 264zm-1.256 542.744c0-69.98 54.895-127.206 124.137-131.26-69.01-4.292-123.647-61.405-123.647-131.23h264c0 69.99-54.895 127.208-124.137 131.26 69.01 4.294 123.647 61.416 123.647 131.23zM562.101 264c-72.62 0-131.49-59.098-131.49-132S489.481 0 562.101 0zm-541.104-.798c0-72.681 59.227-131.6 132.287-131.6s132.286 58.919 132.286 131.6z"/></g></g></g></svg>