<?xml version="1.0" encoding="utf-8"?>
<svg width="1074.2881px" height="373.4978px" viewBox="0 0 1074.2881 373.4978" version="1.1" xmlns:xlink="http://www.w3.org/1999/xlink" xmlns="http://www.w3.org/2000/svg">
  <path d="M534.149 186.749C534.149 278.29 460.399 352.498 369.422 352.498L369.422 21C460.399 21 534.149 95.208 534.149 186.749ZM698.876 21L698.876 352.498C607.899 352.498 534.149 278.29 534.149 186.749C534.149 95.208 607.899 21 698.876 21ZM887.563 21C979.09 21 1053.29 95.208 1053.29 186.749C1053.29 278.29 979.09 352.498 887.563 352.498C796.036 352.498 721.838 278.29 721.838 186.749C721.838 95.208 796.036 21 887.563 21ZM352.45 351.496L21 351.496C21 260.232 95.1981 186.248 186.725 186.248C278.252 186.248 352.45 260.232 352.45 351.496Z" id="Combined-Shape2" fill="#F2F2F2" fill-opacity="0.1" fill-rule="evenodd" stroke="none" />
</svg>