<?xml version="1.0" encoding="utf-8"?>
<svg width="1401px" height="713.5px" viewBox="0 0 1401 713.5" version="1.1" xmlns:xlink="http://www.w3.org/1999/xlink" xmlns="http://www.w3.org/2000/svg">
  <path d="M21 352C112.127 352 186 277.903 186 186.5C186 277.903 259.873 352 351 352L351 21C259.873 21 186 95.0966 186 186.5C186 95.0966 112.127 21 21 21L21 352ZM700 186.5C700 95.0966 625.68 21 534 21C442.32 21 368 95.0966 368 186.5C368 277.903 442.32 352 534 352C625.68 352 700 277.903 700 186.5ZM1380 186.5C1380 95.0966 1305.68 21 1214 21C1122.32 21 1048 95.0966 1048 186.5C1048 277.903 1122.32 352 1214 352C1305.68 352 1380 277.903 1380 186.5ZM716 22C716 113.127 790.32 187 882 187C790.32 187 716 260.873 716 352L1048 352C1048 260.873 973.679 187 882 187C973.679 187 1048 113.127 1048 22L716 22ZM363 360C363 451.127 437.097 525 528.5 525C619.903 525 694 451.126 694 360L363 360ZM718 691C809.127 691 883 616.903 883 525.5C883 616.903 956.873 691 1048 691L1048 360C956.873 360 883 434.097 883 525.5C883 434.097 809.127 360 718 360L718 691ZM21.5 526.5C21.5 618.18 95.5966 692.5 187 692.5C278.403 692.5 352.5 618.18 352.5 526.5C352.5 434.82 278.403 360.5 187 360.5C95.5966 360.5 21.5 434.82 21.5 526.5ZM529 527C437.597 527 363.5 600.873 363.5 692L694.5 692C694.5 600.873 620.403 527 529 527Z" id="Combined-Shape1" fill="#F2F2F2" fill-rule="evenodd" stroke="none" />
</svg>