<svg xmlns="http://www.w3.org/2000/svg" xmlns:xlink="http://www.w3.org/1999/xlink"><defs><style>
    .sprite-symbol-usage {display: none;}
    .sprite-symbol-usage:target {display: inline;}
  </style><symbol viewBox="0 0 12.75 26" id="arrow"><path d="m12.24 19.61-5.82 5.83L.5 19.51m5.59 5.95V.54" fill="none" stroke="currentColor" /></symbol><symbol viewBox="0 0 29 12.75" id="arrow_right"><path fill="currentColor" d="m22.97 12.59-.72-.69 4.78-4.94-26.9-.21.01-1 26.92.21-5.1-5.1.71-.7 6.27 6.26-5.97 6.17z" /></symbol><symbol viewBox="0 0 13.611 14.487" id="arrow_t"><path d="M13.111 6.758 6.858.5.5 6.864m6.363-5.732v12.855" fill="none" stroke="#FFF" /></symbol><symbol viewBox="0 0 12.4 12.8" id="close_icon"><path d="m12.4.8-.7-.7-5.4 5.5L.7 0 0 .7l5.7 5.7L0 12.1l.7.7 5.6-5.6 5.4 5.5.7-.7-5.6-5.6z" /></symbol><symbol viewBox="0 0 12.45 12.81" id="cross"><path d="M12.09.45 6.27 6.28.35.35M12.09 12.36 6.27 6.53.35 12.46" fill="none" stroke="currentColor" /></symbol><symbol viewBox="0 0 256 512" id="facebook"><path d="M151.091 224.461h60.57v-66.56h-60.57v-13.977c0-29.287.666-39.27 32.614-39.27h25.958V29.441c-7.987-.666-20.633-1.331-47.923-1.331-63.898 0-103.834 27.956-103.834 101.172v28.621H6.655v66.56h51.251v287.539h93.184V224.463z" /></symbol><symbol viewBox="0 0 563 512" id="linkedin"><path d="M142.439 34.099h-99.84V512h99.84V34.099zm406.23 232.96c0-77.875-53.916-118.477-123.138-118.477-67.226 0-93.85 39.936-106.496 61.235h-1.331V157.9h-89.19v354.099h93.184V308.991c0-53.913 31.949-81.869 73.216-81.869 59.238 0 60.57 43.929 60.57 69.888v214.989h93.186V267.058z" /></symbol><symbol viewBox="0 0 9 14.47" id="pause"><path d="M8.5.5V14M.5.5V14" fill="none" stroke="currentColor" stroke-linecap="square" /></symbol><symbol viewBox="0 0 16.79 16.79" id="plus"><path d="M16.79 8.37H8.56V0M8.37 16.79V8.56H0" fill="none" stroke="currentColor" /></symbol><symbol viewBox="0 0 21 14" id="quote_icon"><g fill="#0068ff"><path d="M0 0h7v14H0zM14 0h7v14h-7z" /></g></symbol></defs><use id="arrow-usage" xlink:href="#arrow" class="sprite-symbol-usage" /><use id="arrow_right-usage" xlink:href="#arrow_right" class="sprite-symbol-usage" /><use id="arrow_t-usage" xlink:href="#arrow_t" class="sprite-symbol-usage" /><use id="close_icon-usage" xlink:href="#close_icon" class="sprite-symbol-usage" /><use id="cross-usage" xlink:href="#cross" class="sprite-symbol-usage" /><use id="facebook-usage" xlink:href="#facebook" class="sprite-symbol-usage" /><use id="linkedin-usage" xlink:href="#linkedin" class="sprite-symbol-usage" /><use id="pause-usage" xlink:href="#pause" class="sprite-symbol-usage" /><use id="plus-usage" xlink:href="#plus" class="sprite-symbol-usage" /><use id="quote_icon-usage" xlink:href="#quote_icon" class="sprite-symbol-usage" /></svg>