<svg class="ecosystem_section_caption__svg ecosystem_section_caption__svg--v2 ecosystemQuoteBg2 ecosystem_section_caption__img--1_mod" viewBox="0 0 1520 450" preserveAspectRatio="xMinYMin slice" version="1.1" xmlns="http://www.w3.org/2000/svg" xmlns:xlink="http://www.w3.org/1999/xlink" x="0px" y="0px"
		  style="enable-background:new 0 0 1353 675;" xml:space="preserve">
	<defs>
        <filter x="-4.4%" y="-2.2%" width="108.91%" height="104.4%" filterUnits="objectBoundingBox" id="filter-ecosystemQuoteBg2">
            <feGaussianBlur stdDeviation="0 10" in="SourceGraphic"></feGaussianBlur>
        </filter>
    </defs>
	<g stroke="none" stroke-width="1" fill="none" fill-rule="evenodd">
        <g fill="#323235">
            <g>
                <path d="M668,678 L668,1002 C578.529617,1002 506,929.470383 506,840 C506,750.529617 578.529617,678 668,678 Z M344,678 C433.470383,678 506,750.529617 506,840 C506,929.470383 433.470383,1002 344,1002 L344,678 Z M850,678 C940.574956,678 1014,750.529617 1014,840 C1014,929.470383 940.574956,1002 850,1002 C759.425044,1002 686,929.470383 686,840 C686,750.529617 759.425044,678 850,678 Z M668,335 C668,420.170638 601.462661,489.989655 516.933412,496.503638 C601.462661,503.010345 668,572.829362 668,658 L340,658 C340,572.829362 406.537339,503.010345 491.066588,496.496362 C406.537339,489.989655 340,420.170638 340,335 L668,335 Z M1011,-8 L1011,316 C921.529617,316 849,243.470383 849,154 C849,64.5296168 921.529617,-8 1011,-8 Z M687,-8 C776.470383,-8 849,64.5296168 849,154 C849,243.470383 776.470383,316 687,316 L687,-8 Z M851,-187 C941.574956,-187 1015,-114.470383 1015,-25 L687,-25 C687,-114.470383 760.425044,-187 851,-187 Z M664,-350 L664,-26 C574.529617,-26 502,-98.5296168 502,-188 C502,-277.470383 574.529617,-350 664,-350 Z M340,-350 C429.470383,-350 502,-277.470383 502,-188 C502,-98.5296168 429.470383,-26 340,-26 L340,-350 Z M1015,-351 C1015,-261.529617 941.574956,-189 851,-189 C760.425044,-189 687,-261.529617 687,-351 L1015,-351 Z" filter="url(#filter-ecosystemQuoteBg2)" transform="translate(677.500000, 325.500000) rotate(90.000000) translate(-677.500000, -325.500000) "></path>
            </g>
        </g>
    </g>
</svg>
