<svg class="ecosystem_section_caption__img--2_mod" preserveAspectRatio="xMinYMin slice" viewBox="0 0 614 437" version="1.1" xmlns="http://www.w3.org/2000/svg" xmlns:xlink="http://www.w3.org/1999/xlink">
	<title>Combined Shape</title>
	<defs>
		<filter x="-3.5%" y="-6.2%" width="107.0%" height="112.5%" filterUnits="objectBoundingBox" id="filter-4">
			<feGaussianBlur stdDeviation="10 0" in="SourceGraphic"></feGaussianBlur>
		</filter>
	</defs>
	<g id="Page-1" stroke="none" stroke-width="1" fill="none" fill-rule="evenodd" opacity="0.0982600621">
		<g id="mob-ecosystem" fill="#F2F2F2">
			<g id="Combined-Shape-Copy" >
				<path d="M848.192469,299.722015 C922.092537,299.722015 982,360.001734 982,434.361007 C982,508.720281 922.092537,569 848.192469,569 L848.192469,299.722015 Z M549.698745,299.722015 L549.698745,569 C475.798676,569 415.891213,508.720281 415.891213,434.361007 C415.891213,360.001734 475.798676,299.722015 549.698745,299.722015 Z M282.083682,299.722015 C355.983751,299.722015 415.891213,360.001734 415.891213,434.361007 C415.891213,508.720281 355.983751,569 282.083682,569 L282.083682,299.722015 Z M267.67364,300.753731 C267.67364,374.828103 207.304783,434.876866 132.83682,434.876866 C58.3688572,434.876866 -2,374.828103 -2,300.753731 L267.67364,300.753731 Z M267.67364,16 L267.67364,285.277985 C193.774135,285.277985 133.866109,224.998266 133.866109,150.638993 C133.866109,76.2797194 193.774135,16 267.67364,16 Z M0.0585774059,16 C73.9580825,16 133.866109,76.2797194 133.866109,150.638993 C133.866109,224.998266 73.9580825,285.277985 0.0585774059,285.277985 L0.0585774059,16 Z M698.945607,151.154851 C773.414137,151.154851 833.782427,211.203613 833.782427,285.277985 L564.108787,285.277985 C564.108787,211.203613 624.477076,151.154851 698.945607,151.154851 Z M833.782427,17.0317164 C833.782427,91.1060881 773.414137,151.154851 698.945607,151.154851 C624.477076,151.154851 564.108787,91.1060881 564.108787,17.0317164 L833.782427,17.0317164 Z" id="Combined-Shape" filter="url(#filter-4)"></path>
			</g>
		</g>
	</g>
</svg>
