<svg preserveAspectRatio="xMinYMin slice" viewBox="0 0 414 701" version="1.1" xmlns="http://www.w3.org/2000/svg" xmlns:xlink="http://www.w3.org/1999/xlink">
    <title>Fill 1 Copy</title>
    <defs>
        <rect id="path-1" x="0" y="0" width="414" height="701"></rect>
        <linearGradient x1="33.0516829%" y1="22.1606935%" x2="83.7681951%" y2="57.1551269%" id="linearGradient-3">
            <stop stop-color="#00AEEF" offset="0%"></stop>
            <stop stop-color="#0068FF" offset="16.5519896%"></stop>
            <stop stop-color="#FF0000" offset="100%"></stop>
        </linearGradient>
        <filter x="-3.1%" y="-4.1%" width="106.1%" height="108.2%" filterUnits="objectBoundingBox" id="filter-4">
            <feGaussianBlur stdDeviation="11.3954503 0" in="SourceGraphic"></feGaussianBlur>
        </filter>
    </defs>
    <g id="Page-1" stroke="none" stroke-width="1" fill="none" fill-rule="evenodd">
        <g id="mob-Home" transform="translate(0.000000, -99.000000)">
            <g id="Fill-1-Copy" transform="translate(0.000000, 99.000000)">
                <mask id="mask-2" fill="white">
                    <use xlink:href="#path-1"></use>
                </mask>
                <use id="Mask-Copy-2" fill="#1E1E1E" xlink:href="#path-1"></use>
                <path d="M845.371553,566.558909 L845.371553,836 C771.17361,836 711.024673,775.683768 711.024673,701.279455 C711.024673,626.875141 771.17361,566.558909 845.371553,566.558909 Z M576.677794,566.558909 C650.875737,566.558909 711.024673,626.875141 711.024673,701.279455 C711.024673,775.683768 650.875737,836 576.677794,836 L576.677794,566.558909 Z M277.857765,566.558909 L277.857765,836 C203.659822,836 143.510885,775.683768 143.510885,701.279455 C143.510885,626.875141 203.659822,566.558909 277.857765,566.558909 Z M9.16400581,566.558909 C83.3619489,566.558909 143.510885,626.875141 143.510885,701.279455 C143.510885,775.683768 83.3619489,836 9.16400581,836 L9.16400581,566.558909 Z M427.674891,566.558909 C502.322519,566.558909 562.835994,626.875141 562.835994,701.279455 C562.835994,775.683768 502.322519,836 427.674891,836 C353.027264,836 292.513788,775.683768 292.513788,701.279455 C292.513788,626.875141 353.027264,566.558909 427.674891,566.558909 Z M-4.6777939,567.372931 C-4.6777939,641.552458 -65.1918384,701.686465 -139.838897,701.686465 C-214.485955,701.686465 -275,641.552458 -275,567.372931 L-4.6777939,567.372931 Z M427.674891,418.407011 C502.322519,418.407011 562.835994,478.541018 562.835994,552.720545 L292.513788,552.720545 C292.513788,478.541018 353.027264,418.407011 427.674891,418.407011 Z M144.325109,283.279455 C218.972736,283.279455 279.486212,343.595686 279.486212,418 C279.486212,492.404314 218.972736,552.720545 144.325109,552.720545 C69.6774812,552.720545 9.16400581,492.404314 9.16400581,418 C9.16400581,343.595686 69.6774812,283.279455 144.325109,283.279455 Z M144.325109,135.941577 C218.972736,135.941577 279.486212,196.075585 279.486212,270.255112 L9.16400581,270.255112 C9.16400581,196.075585 69.6774812,135.941577 144.325109,135.941577 Z M562.835994,0 L562.835994,269.441091 C488.638051,269.441091 428.489115,209.124859 428.489115,134.720545 C428.489115,60.3162317 488.638051,0 562.835994,0 Z M294.142235,0 C368.340178,0 428.489115,60.3162317 428.489115,134.720545 C428.489115,209.124859 368.340178,269.441091 294.142235,269.441091 L294.142235,0 Z M279.486212,0 C279.486212,74.1795272 218.972736,134.313535 144.325109,134.313535 C69.6774812,134.313535 9.16400581,74.1795272 9.16400581,0 L279.486212,0 Z" id="Mask-Copy" stroke-opacity="0.523265065" stroke="#92ADD5" stroke-width="0.529745042" fill="url(#linearGradient-3)" filter="url(#filter-4)" mask="url(#mask-2)"></path>
                <path d="M427,135 L427,418 C427,574.297506 300.657637,701 144.810865,701 C-9.75882043,701 -135.950353,576.347811 -138,421.821262 L1.98722861,421.821262 C4.0211094,497.635092 68.7374162,558.690947 144.810865,558.690947 C222.166656,558.690947 285.10134,495.579517 285.10134,418 L285.10134,277.309053 L144.139208,277.309053 L144.139208,135 L427,135 Z" id="Fill-1" fill="#1E1E1E" mask="url(#mask-2)"></path>
            </g>
        </g>
    </g>
</svg>
