<svg class="hero__bg_in_svg_bg hero__bg_in_svg_bg--v2_mod heroBg2" xmlns="http://www.w3.org/2000/svg" xmlns:xlink="http://www.w3.org/1999/xlink" viewBox="0 0 1440 812">
	<defs>
    <linearGradient id="hero_bg_gradient2"  x1="-713.18" y1="0.53" x2="-712.68" y2="0.88" gradientTransform="translate(983009 -294) scale(1378 1027)" gradientUnits="userSpaceOnUse">
      <stop offset="0" stop-color="#00aeef"/>
      <stop offset="0.17" stop-color="#0068ff"/>
      <stop offset="1" stop-color="red"/>
    </linearGradient>
		<filter x="-3.1%" y="-4.1%" width="106.1%" height="108.2%" filterUnits="objectBoundingBox" id="hero_filter">
			<feGaussianBlur stdDeviation="0 10" in="SourceGraphic"></feGaussianBlur>
		</filter>
  </defs>
  <path class="heroBgCover" d="M1207,668V999c-91.13,0-165-74.1-165-165.5S1115.87,668,1207,668Zm-330,0c91.13,0,165,74.1,165,165.5S968.13,999,877,999Zm-367,0V999c-91.13,0-165-74.1-165-165.5S418.87,668,510,668Zm-330,0c91.13,0,165,74.1,165,165.5S271.13,999,180,999Zm514,0c91.68,0,166,74.1,166,165.5S785.68,999,694,999,528,924.9,528,833.5,602.32,668,694,668Zm-531,1c0,91.13-74.32,165-166,165s-166-73.87-166-165Zm0-349V651C71.87,651-2,576.9-2,485.5S71.87,320,163,320ZM694,486c91.68,0,166,73.87,166,165H528C528,559.87,602.32,486,694,486ZM346,320c91.68,0,166,74.1,166,165.5S437.68,651,346,651,180,576.9,180,485.5,254.32,320,346,320Zm697,0c91.68,0,166,74.1,166,165.5S1134.68,651,1043,651,877,576.9,877,485.5,951.32,320,1043,320Zm-183,1c0,91.13-74.32,165-166,165S528,412.13,528,321ZM346,139c91.68,0,166,73.87,166,165H180C180,212.87,254.32,139,346,139Zm697,0c91.68,0,166,73.87,166,165H877C877,212.87,951.32,139,1043,139ZM860-28V303c-91.13,0-165-74.1-165-165.5S768.87-28,860-28ZM530-28c91.13,0,165,74.1,165,165.5S621.13,303,530,303ZM-3-28c91.68,0,166,74.1,166,165.5S88.68,303-3,303s-166-74.1-166-165.5S-94.68-28-3-28Zm515,0c0,91.13-74.32,165-166,165S180,63.13,180-28Zm697,0c0,91.13-74.32,165-166,165S877,63.13,877-28Z" stroke="#92add5" stroke-opacity="0.52" stroke-width="0.5" fill-rule="evenodd" fill="url(#hero_bg_gradient2)" filter="url(#hero_filter)"/>
</svg>
