<?xml version="1.0" encoding="UTF-8"?>
<svg id="SVGDoc2" width="193" height="21" xmlns="http://www.w3.org/2000/svg" version="1.1" xmlns:xlink="http://www.w3.org/1999/xlink"  viewBox="0 0 193 21"><defs></defs><desc>Generated with Avocode.</desc><g><g><title>logo copy</title><g><title>Fill 1</title><path d="M60,13.53711h-7.06551l-1.52087,3.38525h-1.41362l5.81277,-12.67236h1.3217l5.79326,12.67236h-1.41223zM59.50578,12.45093l-3.04121,-6.80688l-3.04123,6.80688z" fill="#ffffff" fill-opacity="1"></path></g><g><title>Fill 2</title><path d="M68.64999,4.25h5.15959c4.05463,0 6.78856,2.60669 6.78856,6.33594c0,3.72925 -2.73393,6.33643 -6.78856,6.33643h-5.15959zM73.73665,15.76367c3.36713,0 5.53979,-2.13599 5.53979,-5.17773c0,-3.04126 -2.17267,-5.17725 -5.53979,-5.17725h-3.73665v10.35498z" fill="#ffffff" fill-opacity="1"></path></g><g><title>Fill 4</title><path d="M100.39072,4.25v0v12.67188v0h-1.28549v0v-10.1377v0l-4.97803,8.52686v0h-0.63368v0l-4.97803,-8.47241v0v10.08325v0h-1.28549v0v-12.67187v0h1.10393v0l5.5036,9.39575v0l5.44925,-9.39575v0z" fill="#ffffff" fill-opacity="1"></path></g><g><title>Fill 6</title><path d="M108.14,16.92188v0h1.33981v0v-12.67187v0h-1.33981v0z" fill="#ffffff" fill-opacity="1"></path></g><g><title>Fill 8</title><path d="M127.82072,4.25v0v12.67188v0h-1.10443v0l-8.14648,-10.28247v0v10.28247v0h-1.33981v0v-12.67187v0h1.10445v0l8.16458,10.28247v0v-10.28247v0z" fill="#ffffff" fill-opacity="1"></path></g><g><title>Fill 9</title><path d="M138,5.40869v0h-4.42v0v-1.15869v0h10.24673v0v1.15869v0h-4.45396v0v11.51367v0h-1.37277v0z" fill="#f5574a" fill-opacity="1"></path></g><g><title>Fill 10</title><path d="M158.54073,15.76367v0v1.15869v0h-8.96072v0v-12.67236v0h8.68915v0v1.15869v0h-7.34933v0v4.50781v0h6.55319v0v1.14063v0h-6.55319v0v4.70654v0z" fill="#f5574a" fill-opacity="1"></path></g><g><title>Fill 11</title><path d="M164.12,10.58398c0,-3.71094 2.82396,-6.44409 6.64374,-6.44409c1.84676,0 3.51196,0.61523 4.63451,1.86011l-0.85095,0.83716c-1.03151,-1.05005 -2.2989,-1.50269 -3.74734,-1.50269c-3.05934,0 -5.35875,2.24463 -5.35875,5.24951c0,3.00562 2.29941,5.25024 5.35875,5.25024c1.44844,0 2.71584,-0.45264 3.74734,-1.521l0.85095,0.85107c-1.12254,1.2312 -2.78775,1.83569 -4.65262,1.83569c-3.80167,0 -6.62563,-2.70435 -6.62563,-6.41602" fill="#f5574a" fill-opacity="1"></path></g><g><title>Fill 12</title><path d="M192.47073,4.25v0v12.67188v0h-1.32172v0v-5.84717v0h-7.9292v0v5.84717v0h-1.33981v0v-12.67187v0h1.33981v0v5.64795v0h7.9292v0v-5.64795v0z" fill="#f5574a" fill-opacity="1"></path></g><g><title>Fill 13</title><path d="M23.82576,19.94043c0.25247,0.43701 -0.06337,0.98364 -0.56781,0.98364h-22.60125c-0.50494,0 -0.82028,-0.54663 -0.56781,-0.98364l5.65044,-9.78613l5.64993,-9.78662c0.25248,-0.43701 0.88366,-0.43701 1.13562,0l5.65044,9.78662zM16.59762,16.91821c0.50446,0 0.81978,-0.54663 0.56731,-0.98364l-2.32002,-4.01807l-2.32003,-4.0188c-0.25196,-0.43701 -0.88314,-0.43701 -1.13561,0l-2.32003,4.0188l-2.32001,4.01807c-0.25197,0.43701 0.06337,0.98364 0.56781,0.98364z" fill="#ffffff" fill-opacity="1"></path></g><g><title>Fill 14</title><path d="M29.36605,21v0h2.5222c0.36211,0 0.65532,-0.3291 0.65532,-0.69116v-15.20166c0,-0.36206 0.29372,-0.65576 0.65583,-0.65576h7.8006c0.2639,0 0.48016,-0.12476 0.59735,-0.32788l1.81307,-3.12354c0.25246,-0.45386 -0.06287,-1 -0.56781,-1h-12.47824v0h-12.47773c-0.50444,0 -0.82028,0.54614 -0.56781,1l1.81256,3.12354c0.11768,0.20313 0.33345,0.32788 0.56781,0.32788h8.35571c0.36161,0 0.65532,0.2937 0.65532,0.65576v15.20166c0,0.36206 0.28977,0.69116 0.65582,0.69116" fill="#f5574a" fill-opacity="1"></path></g></g></g></svg>