<svg xmlns="http://www.w3.org/2000/svg" viewBox="0 0 159 65">
	<g>
		<path fill="#0068ff" d="M42 21.253v20.94c0 11.565-9.351 20.94-20.916 20.94C9.614 63.133.303 53.91.15 42.476h10.53c.15 5.61 4.758 10.127 10.403 10.127 5.74 0 10.41-4.67 10.41-10.41v-10.41H21.247v-10.53zM10.707.058L10.58 31.81h-.051v.01L0 31.763.177 0z"/>
	</g>
	<g>
		<path d="M113.223 49.726c2.58 0 4.718 1.992 4.718 4.95 0 2.98-2.117 4.932-4.697 4.932h-3.367v4.327h-1.754v-14.21zm-.16 8.274c1.733 0 3.104-1.411 3.104-3.303 0-1.872-1.371-3.321-3.105-3.321h-3.185V58zm-24.314-8.274c2.681 0 4.939 1.952 4.939 4.93 0 2.98-2.258 4.952-4.94 4.952-2.68 0-4.918-1.973-4.918-4.951 0-2.979 2.238-4.931 4.919-4.931zm0 8.274c1.733 0 3.185-1.391 3.185-3.343 0-1.933-1.452-3.281-3.185-3.281-1.749 0-3.145 1.348-3.145 3.28C85.604 56.61 87 58 88.75 58zm-15.222-8.274v8.332c0 4.448-2.016 6.118-5.12 6.118-1.714 0-3.306-.865-4.233-2.515l1.491-.786a3.173 3.173 0 0 0 2.742 1.65c1.763 0 2.96-.84 3.28-3.04 0 0-1.91.123-3.26.123-2.58 0-4.717-1.993-4.717-4.951 0-2.979 2.117-4.931 4.697-4.931zm-1.754 1.65h-3.205c-1.713 0-3.084 1.369-3.084 3.26 0 1.872 1.37 3.364 3.084 3.364h3.205zM142.64 27.37c2.681 0 4.94 1.952 4.94 4.931s-2.259 4.951-4.94 4.951c-2.64 0-4.919-1.972-4.919-4.95 0-2.98 2.279-4.932 4.92-4.932zm0 8.232c1.734 0 3.185-1.349 3.185-3.3 0-1.933-1.451-3.303-3.185-3.303-1.713 0-3.144 1.37-3.144 3.302 0 1.952 1.43 3.3 3.144 3.3zm-19.214-8.232v9.882h-5.2c-2.46 0-4.617-2.073-4.617-4.95 0-2.778 2.036-4.932 4.697-4.932zM121.673 29h-3.206c-1.713 0-3.084 1.531-3.084 3.302 0 1.791 1.37 3.3 3.104 3.3h3.186zm-44.88 30.572V50h1.775v2.1c.483-1.65 1.432-2.374 2.64-2.374.666 0 1.351.18 1.633.362l-.282 1.65a3.263 3.263 0 0 0-1.37-.322c-1.875 0-2.621 2.033-2.621 4.508v3.648zm56.573-32.228h1.754v9.91h-1.754zm-5.948 9.91V25.347h1.754v1.996h2.036v1.509h-2.036v8.4zm-20.604 0l-3.91-9.91h1.875L107.68 35l2.883-7.656h1.895l-3.931 9.91zm-10.02-9.883c2.682 0 4.94 1.952 4.94 4.931s-2.258 4.951-4.94 4.951c-2.68 0-4.918-1.972-4.918-4.95 0-2.98 2.238-4.932 4.918-4.932zm0 8.232c1.734 0 3.206-1.349 3.206-3.3C100 30.37 98.528 29 96.794 29c-1.713 0-3.144 1.37-3.144 3.302 0 1.952 1.431 3.3 3.144 3.3zm-32.86-8.26h1.753v9.91h-1.754zM137.577 15c-1.693 0-3.427-1-3.508-3h1.633c.02.839.726 1.503 1.875 1.503 1.19 0 1.895-.583 1.895-1.348 0-.705-.544-1.067-1.29-1.228l-1.29-.302c-1.573-.423-2.48-1.187-2.48-2.697 0-1.55 1.33-2.777 3.225-2.777 1.593 0 3.246.849 3.246 2.737h-1.693c-.02-.725-.766-1.208-1.512-1.208-.908 0-1.512.584-1.512 1.32 0 .633.604 1 1.21 1.115l1.39.343c1.956.483 2.46 1.65 2.46 2.717 0 1.75-1.694 2.825-3.649 2.825zm-8.972 0c-1.693 0-3.427-1-3.507-3h1.633c.02.839.725 1.503 1.874 1.503 1.19 0 1.895-.583 1.895-1.348 0-.705-.501-1.067-1.29-1.228l-1.29-.302c-1.572-.423-2.48-1.187-2.48-2.697 0-1.55 1.33-2.777 3.226-2.777 1.592 0 3.245.849 3.245 2.737h-1.693c-.02-.725-.766-1.208-1.512-1.208-.907 0-1.512.584-1.512 1.32 0 .633.605 1 1.21 1.115l1.39.343c1.956.483 2.46 1.65 2.46 2.717 0 1.75-1.693 2.825-3.649 2.825zm-5.363-4.938c0 .261-.02.523-.04.784h-7.66c.262 1.671 1.457 2.536 3.084 2.536 1.149 0 2.197-.523 2.741-1.47l1.512.605c-.806 1.63-2.5 2.483-4.314 2.483-2.68 0-4.838-2-4.838-4.938 0-2.98 2.157-4.911 4.838-4.911s4.677 1.932 4.677 4.91zm-1.754-.725c-.221-1.61-1.37-2.536-2.923-2.536-1.566 0-2.721.845-3.003 2.536zM97.56 5.141h1.754v9.982H97.56zM91.35 15c-1.693 0-3.427-1-3.507-3h1.633c.02.839.725 1.503 1.874 1.503 1.19 0 1.895-.583 1.895-1.348 0-.705-.544-1.067-1.244-1.228l-1.336-.302c-1.572-.423-2.48-1.187-2.48-2.697 0-1.55 1.33-2.777 3.226-2.777 1.59 0 3.245.849 3.245 2.737H93c-.058-.725-.804-1.208-1.55-1.208-.907 0-1.512.584-1.512 1.32 0 .633.605 1 1.21 1.115l1.39.343C94.495 9.94 95 11.108 95 12.175 95 13.925 93.305 15 91.35 15zM69.111 5.15c2.58 0 4.697 1.953 4.697 4.931C73.808 13 71.67 15 69.09 15H64V.28h1.744v4.87zm-.182 8.232c1.734 0 3.071-1.449 3.071-3.32 0-1.892-1.337-3.26-3.07-3.26h-3.186v6.58zm11.582 1.676a4.263 4.263 0 0 1-4.259-4.259V5.141h1.81v5.658c0 1.351 1.098 2.45 2.449 2.45h.357a2.803 2.803 0 0 0 2.806-2.807V5.141h1.81v5.301a4.613 4.613 0 0 1-4.616 4.616zm20.08 44.585a4.263 4.263 0 0 1-4.258-4.258v-5.66h1.809v5.66c0 1.35 1.099 2.449 2.45 2.449h.356A2.816 2.816 0 0 0 103.755 55v-5.274h1.809V55c0 2.573-2.07 4.643-4.616 4.643zm10.584-44.518h-1.81V9.429c0-1.362-1.108-2.429-2.47-2.429h-.36c-1.535 0-2.83 1.228-2.83 2.789v5.336h-1.809V9.789c0-2.558 2.104-4.64 4.64-4.64h.36c2.359 0 4.279 1.92 4.279 4.28zM77.45 37.27h-1.81v-5.695a2.474 2.474 0 0 0-2.47-2.47h-.36c-1.56 0-2.81 1.27-2.81 2.83v5.335h-1.83v-5.335a4.645 4.645 0 0 1 4.64-4.64h.36c2.36 0 4.28 1.92 4.28 4.28zm11.885 0h-1.809v-5.695a2.474 2.474 0 0 0-2.47-2.47h-.36c-1.56 0-2.83 1.27-2.83 2.83v5.335h-1.81v-5.335a4.645 4.645 0 0 1 4.64-4.64h.36c2.36 0 4.28 1.92 4.28 4.28zm69.42.115h-1.808V31.69a2.474 2.474 0 0 0-2.471-2.47h-.36c-1.56 0-2.83 1.269-2.83 2.78v5.385h-1.81V32c0-2.509 2.082-4.59 4.64-4.59h.36c2.36 0 4.28 1.92 4.28 4.28z"/>
	</g>
</svg>