<?xml version="1.0" encoding="utf-8"?>
<svg width="187px" height="66px" viewBox="0 0 187 66" version="1.1" xmlns:xlink="http://www.w3.org/1999/xlink" xmlns="http://www.w3.org/2000/svg">
  <g id="logo-AT">
    <path d="M13.1462 59.672L9.18789 50.6482L5.2296 59.672L13.1462 59.672ZM13.7824 61.1121L4.59334 61.1121L2.61386 65.6L0.8 65.6L8.33954 48.8L10.0598 48.8L17.6 65.6L15.7619 65.6L13.7824 61.1121Z" id="Fill-1" fill="#FFFFFF" fill-rule="evenodd" stroke="none" />
    <path d="M31.6116 64.0638C36.1206 64.0638 39.0301 61.2321 39.0301 57.1997C39.0301 53.1679 36.1206 50.3362 31.6116 50.3362L26.5935 50.3362L26.5935 64.0638L31.6116 64.0638ZM24.8 48.8L31.7093 48.8C37.1389 48.8 40.8 52.2557 40.8 57.1997C40.8 62.1436 37.1389 65.6 31.7093 65.6L24.8 65.6L24.8 48.8Z" id="Fill-2" fill="#FFFFFF" fill-rule="evenodd" stroke="none" />
    <path d="M66.4 48.8L66.4 65.6L64.759 65.6L64.759 52.1599L58.4045 63.4643L57.5955 63.4643L51.241 52.2319L51.241 65.6L49.6 65.6L49.6 48.8L51.0092 48.8L58.0347 61.2566L64.9908 48.8L66.4 48.8Z" id="Fill-4" fill="#FFFFFF" fill-rule="evenodd" stroke="none" />
    <path d="M76.8 65.6L78.4 65.6L78.4 48.8L76.8 48.8L76.8 65.6Z" id="Fill-6" fill="#FFFFFF" fill-rule="evenodd" stroke="none" />
    <path d="M101.6 48.8L101.6 65.6L100.182 65.6L89.7205 51.9678L89.7205 65.6L88 65.6L88 48.8L89.4183 48.8L99.9027 62.4322L99.9027 48.8L101.6 48.8Z" id="Fill-8" fill="#FFFFFF" fill-rule="evenodd" stroke="none" />
    <path d="M115.511 50.3362L109.6 50.3362L109.6 48.8L123.2 48.8L123.2 50.3362L117.288 50.3362L117.288 65.6L115.511 65.6L115.511 50.3362Z" id="Fill-9" fill="#F5574A" fill-rule="evenodd" stroke="none" />
    <path d="M142.4 64.0638L142.4 65.6L130.4 65.6L130.4 48.8L142.036 48.8L142.036 50.3362L132.194 50.3362L132.194 56.3122L140.97 56.3122L140.97 57.8244L132.194 57.8244L132.194 64.0638L142.4 64.0638Z" id="Fill-10" fill="#F5574A" fill-rule="evenodd" stroke="none" />
    <path d="M149.6 57.1997C149.6 52.3623 153.206 48.8 158.083 48.8C160.441 48.8 162.567 49.6017 164 51.2059L162.913 52.3158C161.596 50.947 159.978 50.3569 158.129 50.3569C154.223 50.3569 151.287 53.2827 151.287 57.1997C151.287 61.1173 154.223 64.043 158.129 64.043C159.978 64.043 161.596 63.453 162.913 62.0606L164 63.1698C162.567 64.7747 160.441 65.6 158.06 65.6C153.206 65.6 149.6 62.0377 149.6 57.1997" id="Fill-11" fill="#F5574A" fill-rule="evenodd" stroke="none" />
    <path d="M186.4 48.8L186.4 65.6L184.703 65.6L184.703 57.8481L174.521 57.8481L174.521 65.6L172.8 65.6L172.8 48.8L174.521 48.8L174.521 56.2879L184.703 56.2879L184.703 48.8L186.4 48.8Z" id="Fill-12" fill="#F5574A" fill-rule="evenodd" stroke="none" />
    <g id="Group-2" transform="translate(64.8 0)">
      <path d="M15.6506 22.1629L9.57724 22.1629C8.91698 22.1629 8.50423 21.4467 8.83403 20.8742L11.8707 15.6109L14.9074 10.3462C15.2378 9.77371 16.064 9.77371 16.3938 10.3462L19.4305 15.6109L22.4671 20.8742C22.7976 21.4467 22.3848 22.1629 21.7246 22.1629L15.6506 22.1629ZM23.7896 13.3024L16.3938 0.482325C16.064 -0.0901929 15.2378 -0.0901929 14.9074 0.482325L7.51219 13.3024L0.116354 26.1218C-0.214105 26.6943 0.19864 27.4104 0.859559 27.4104L15.6506 27.4104L30.4423 27.4104C31.1025 27.4104 31.5159 26.6943 31.1855 26.1218L23.7896 13.3024Z" id="Fill-13" fill="#FFFFFF" fill-rule="evenodd" stroke="none" />
      <path d="M38.4329 27.4631L41.7342 27.4631C42.2081 27.4631 42.5919 27.0783 42.5919 26.604L42.5919 6.69035C42.5919 6.216 42.9763 5.83125 43.4503 5.83125L53.6992 5.83125C54.0059 5.83125 54.289 5.66786 54.4424 5.40169L56.8155 1.28866C57.146 0.715482 56.7332 -2.34061e-14 56.0723 -2.34061e-14L39.7396 -2.34061e-14L23.4075 -2.34061e-14C22.7472 -2.34061e-14 22.3338 0.715482 22.6643 1.28866L25.0367 5.40169C25.1908 5.66786 25.4732 5.83125 25.78 5.83125L36.7167 5.83125C37.19 5.83125 37.5745 6.216 37.5745 6.69035L37.5745 26.604C37.5745 27.0783 37.9589 27.4631 38.4329 27.4631" id="Fill-14" fill="#F5574A" fill-rule="evenodd" stroke="none" />
    </g>
  </g>
</svg>