<?xml version="1.0" encoding="utf-8"?>
<svg width="213px" height="50px" viewBox="0 0 213 50" version="1.1" xmlns:xlink="http://www.w3.org/1999/xlink" xmlns="http://www.w3.org/2000/svg">
  <path d="M42.8511 14.3364C43.5071 14.199 44 13.6174 44 12.9207C44 12.1208 43.3518 11.4727 42.5523 11.4727C42.1189 11.4727 41.7342 11.6672 41.469 11.9695L33.6518 7.4563C33.7017 7.31006 33.7348 7.15576 33.7348 6.99219C33.7348 6.19263 33.0866 5.54492 32.2876 5.54492C31.8537 5.54492 31.4685 5.73999 31.2032 6.04224L23.4399 1.56055C23.4432 1.52246 23.4516 1.48584 23.4516 1.44727C23.4516 0.648193 22.8035 0 22.0039 0C21.2049 0 20.5568 0.648193 20.5568 1.44727C20.5568 1.48584 20.5652 1.52246 20.568 1.56055L2.53323 11.9729C2.26801 11.6689 1.88226 11.4727 1.44714 11.4727C0.647614 11.4727 0 12.1208 0 12.9207C0 13.6204 0.496765 14.2046 1.15729 14.3386L1.15729 23.3857C0.496765 23.5203 0 24.104 0 24.8037C0 25.5042 0.496765 26.0879 1.15729 26.2224L1.15729 35.26C0.496765 35.394 0 35.9783 0 36.678C0 37.4775 0.647614 38.1257 1.44714 38.1257C1.87946 38.1257 2.26352 37.9324 2.52817 37.6318L20.6397 48.0886C20.5898 48.2354 20.5568 48.3896 20.5568 48.5527C20.5568 49.3523 21.2049 50 22.0039 50C22.8035 50 23.4516 49.3523 23.4516 48.5527C23.4516 48.3892 23.4185 48.2349 23.3687 48.0886L31.2032 43.5652C31.4685 43.8679 31.8531 44.0625 32.2876 44.0625C33.0866 44.0625 33.7348 43.415 33.7348 42.6155C33.7348 42.4521 33.7017 42.2981 33.6518 42.1511L41.4741 37.6353C41.7393 37.9341 42.1217 38.1257 42.5523 38.1257C43.3518 38.1257 44 37.4775 44 36.678C44 35.981 43.5071 35.4001 42.8511 35.2622L42.8511 14.3364ZM2.81244 12.4597L20.7272 2.11548C20.9695 2.57715 21.4471 2.89429 22.0039 2.89429C22.5607 2.89429 23.039 2.57715 23.2806 2.11548L30.9229 6.52783C30.873 6.6748 30.8405 6.82886 30.8405 6.99219C30.8405 7.15576 30.873 7.31006 30.9229 7.4563L23.0934 11.9768C22.8282 11.6707 22.4413 11.4727 22.0039 11.4727C21.2049 11.4727 20.5568 12.1208 20.5568 12.9207C20.5568 13.0864 20.5904 13.2441 20.642 13.3921L12.9038 17.8604C12.6403 17.5032 12.2198 17.2683 11.7421 17.2683C11.256 17.2683 10.8293 17.5095 10.5663 17.8767L2.80795 13.3965C2.86011 13.2468 2.89432 13.0881 2.89432 12.9207C2.89432 12.7585 2.86179 12.6047 2.81244 12.4597ZM72.2901 20.8291C72.176 20.7151 72.1189 20.5796 72.1189 20.4219L72.1189 12.043L69.3448 16.8645C69.2734 16.9792 69.1741 17.0972 69.0457 17.2183C68.9178 17.3396 68.7543 17.4001 68.5551 17.4001L67.4449 17.4001C67.2462 17.4001 67.0827 17.3396 66.9543 17.2183C66.8264 17.0972 66.7266 16.9792 66.6558 16.8645L63.8811 12.043L63.8811 20.4219C63.8811 20.5796 63.824 20.7151 63.7104 20.8291C63.5968 20.9434 63.4613 21 63.3049 21L61.5768 21C61.4198 21 61.2848 20.9434 61.1707 20.8291C61.0565 20.7151 61 20.5796 61 20.4219L61 6.57861C61 6.42163 61.0565 6.28589 61.1707 6.17139C61.2848 6.05737 61.4198 6 61.5768 6L63.0277 6C63.312 6 63.5217 6.07886 63.6572 6.23584C63.7922 6.39282 63.8877 6.50757 63.9453 6.57861L68.0003 13.6504L72.0552 6.57861C72.1118 6.50757 72.2078 6.39282 72.3433 6.23584C72.4783 6.07886 72.688 6 72.9728 6L74.4243 6C74.5807 6 74.7157 6.05737 74.8293 6.17139C74.9429 6.28589 75 6.42163 75 6.57861L75 20.4219C75 20.5796 74.9429 20.7151 74.8293 20.8291C74.7157 20.9434 74.5807 21 74.4243 21L72.6957 21C72.5387 21 72.4037 20.9434 72.2901 20.8291ZM90.9473 20.4644C90.9911 20.5791 91.0719 20.697 91.1902 20.8181C91.308 20.9399 91.5145 21 91.8098 21L93.4026 21C93.5648 21 93.7047 20.9434 93.8231 20.8286C93.9408 20.7146 94 20.5791 94 20.4214C94 20.3647 93.9926 20.3145 93.9778 20.2715L88.558 6.72852C88.4692 6.48608 88.3657 6.30371 88.2479 6.18188C88.1296 6.06055 87.9527 6 87.7166 6L85.2834 6Q84.9293 6 84.7527 6.18188C84.6343 6.30371 84.5308 6.48608 84.4426 6.72852L79.0222 20.2715C79.0068 20.3145 79 20.3647 79 20.4214C79 20.5791 79.0592 20.7146 79.1769 20.8286C79.2947 20.9434 79.4346 21 79.5974 21L81.1902 21C81.4849 21 81.6914 20.9399 81.8098 20.8181C81.9275 20.697 82.0089 20.5791 82.0533 20.4644L83.0045 18.0857L89.9955 18.0857L90.9473 20.4644ZM109.55 19.2109C109.249 19.7817 108.821 20.2703 108.266 20.6777C107.71 21.0857 107.027 21.4075 106.216 21.6445C105.405 21.8811 104.496 22 103.49 22C102.649 22 101.846 21.8999 101.08 21.7C100.314 21.5 99.6341 21.2114 99.041 20.8333C98.4478 20.4553 97.9711 20 97.6108 19.4663C97.2499 18.9331 97.0471 18.3411 97.0025 17.6885C96.9869 17.5107 97.0437 17.3669 97.1711 17.2554C97.2985 17.1445 97.4451 17.0886 97.6108 17.0886L99.1875 17.0886C99.4424 17.0886 99.6382 17.1331 99.7726 17.2222C99.9081 17.3115 100.021 17.4441 100.111 17.6223C100.216 17.8149 100.343 18.0073 100.494 18.2C100.644 18.3926 100.846 18.5627 101.102 18.7114C101.357 18.8589 101.677 18.9817 102.059 19.0776C102.442 19.1743 102.919 19.2222 103.49 19.2222C103.94 19.2222 104.376 19.1892 104.797 19.1223C105.217 19.0554 105.585 18.9446 105.901 18.7886C106.216 18.6331 106.471 18.4412 106.666 18.2114C106.861 17.9812 106.959 17.6965 106.959 17.3555C106.959 17.0298 106.854 16.7634 106.644 16.5554C106.433 16.3486 106.114 16.1702 105.686 16.0222C105.258 15.8743 104.729 15.7332 104.098 15.6001C103.468 15.4663 102.739 15.2966 101.913 15.0886C101.162 14.9109 100.505 14.7 99.9423 14.4553C99.3787 14.2114 98.9135 13.9109 98.5457 13.5554C98.1773 13.2 97.9033 12.7817 97.7231 12.2993C97.543 11.8188 97.4532 11.2439 97.4532 10.5776C97.4532 9.91089 97.6027 9.2959 97.9033 8.73315C98.2033 8.17017 98.6164 7.68848 99.1423 7.28857C99.6677 6.88916 100.294 6.57422 101.023 6.34448C101.751 6.11475 102.536 6 103.377 6C104.383 6 105.27 6.13306 106.036 6.3999C106.801 6.66675 107.44 7 107.95 7.39941C108.46 7.80005 108.848 8.24048 109.11 8.72168C109.373 9.2041 109.52 9.65942 109.55 10.0886C109.564 10.2668 109.509 10.4109 109.381 10.5222C109.253 10.6331 109.107 10.6892 108.942 10.6892L107.364 10.6892C107.109 10.6892 106.918 10.6406 106.79 10.5439C106.662 10.448 106.546 10.3188 106.441 10.1555C106.216 9.78516 105.874 9.46338 105.416 9.18848C104.958 8.91479 104.278 8.77783 103.377 8.77783C102.987 8.77783 102.615 8.81885 102.262 8.8999C101.909 8.98169 101.601 9.1001 101.338 9.25537C101.075 9.41089 100.869 9.6001 100.719 9.82227C100.568 10.0447 100.494 10.2966 100.494 10.5776C100.494 10.9182 100.565 11.1965 100.708 11.4109C100.851 11.6262 101.09 11.8115 101.429 11.9663C101.766 12.1218 102.213 12.2668 102.769 12.3999C103.325 12.5332 104.016 12.6892 104.842 12.8669C105.743 13.0593 106.52 13.2856 107.173 13.5447C107.827 13.804 108.36 14.1147 108.773 14.4778C109.186 14.8411 109.493 15.2595 109.696 15.7332C109.899 16.208 110 16.7485 110 17.3555C110 18.0222 109.849 18.6411 109.55 19.2109ZM118.115 21C117.954 21 117.816 20.9434 117.699 20.8286C117.582 20.7146 117.524 20.5791 117.524 20.4214L117.524 8.67798L113.59 8.67798C113.429 8.67798 113.291 8.62134 113.175 8.50659C113.058 8.39258 113 8.25708 113 8.09985L113 6.57813C113 6.42163 113.058 6.28589 113.175 6.17139C113.291 6.05737 113.429 6 113.59 6L124.41 6C124.569 6 124.708 6.05737 124.825 6.17139C124.941 6.28589 125 6.42163 125 6.57813L125 8.09985C125 8.25708 124.941 8.39258 124.825 8.50659C124.708 8.62134 124.569 8.67798 124.41 8.67798L120.475 8.67798L120.475 20.4214C120.475 20.5791 120.417 20.7146 120.3 20.8286C120.183 20.9434 120.045 21 119.885 21L118.115 21ZM139.822 20.8286C139.703 20.9434 139.561 21 139.398 21L129.603 21C129.439 21 129.297 20.9434 129.178 20.8286C129.059 20.7146 129 20.5791 129 20.4214L129 6.57861C129 6.42163 129.059 6.28589 129.178 6.17139C129.297 6.05737 129.439 6 129.603 6L139.219 6C139.383 6 139.524 6.05737 139.643 6.17139C139.762 6.28589 139.822 6.42163 139.822 6.57861L139.822 8.09985C139.822 8.25757 139.762 8.39307 139.643 8.50708C139.524 8.62183 139.383 8.67847 139.219 8.67847L132.012 8.67847L132.012 12.0854L138.728 12.0854C138.892 12.0854 139.033 12.1428 139.153 12.2573C139.272 12.3716 139.331 12.5071 139.331 12.6646L139.331 14.186C139.331 14.343 139.272 14.4792 139.153 14.5933C139.033 14.7073 138.892 14.7646 138.728 14.7646L132.012 14.7646L132.012 18.3215L139.398 18.3215C139.561 18.3215 139.703 18.3787 139.822 18.4929C139.941 18.6074 140 18.7429 140 18.9001L140 20.4214C140 20.5791 139.941 20.7146 139.822 20.8286ZM153.721 20.4219C153.779 20.5366 153.878 20.6611 154.016 20.7966C154.153 20.9329 154.369 21 154.66 21L156.518 21C156.649 21 156.762 20.9543 156.857 20.8611C156.952 20.7681 157 20.6577 157 20.5288C157 20.4578 156.978 20.3789 156.934 20.293L153.917 15.0005C154.864 14.6433 155.582 14.0967 156.07 13.3606C156.558 12.6255 156.802 11.7356 156.802 10.6931C156.802 9.22192 156.329 8.07129 155.382 7.24316C154.434 6.41431 153.05 6 151.229 6L145.591 6C145.43 6 145.292 6.05737 145.175 6.17139C145.058 6.28589 145 6.42163 145 6.57861L145 20.4219C145 20.5796 145.058 20.7151 145.175 20.8291C145.292 20.9434 145.43 21 145.591 21L147.36 21C147.521 21 147.659 20.9434 147.776 20.8291C147.892 20.7151 147.951 20.5796 147.951 20.4219L147.951 15.4285L150.858 15.4285L153.721 20.4219ZM147.951 8.67847L151.12 8.67847C151.95 8.67847 152.613 8.8147 153.109 9.08569C153.604 9.35693 153.852 9.89307 153.852 10.6931C153.852 11.4932 153.604 12.0359 153.109 12.3213C152.613 12.6079 151.95 12.75 151.12 12.75L147.951 12.75L147.951 8.67847ZM84.0666 15.407L86.5003 9.30005L88.934 15.407L84.0666 15.407ZM20.6397 25.2681L19.293 26.0457L12.8192 29.7834C12.6089 29.5469 12.3258 29.3787 12.0011 29.3198L12.0011 20.137C12.6768 20.0146 13.1892 19.4265 13.1892 18.7156C13.1892 18.5955 13.1702 18.4812 13.1432 18.3696L20.9251 13.8765C21.1309 14.1086 21.4068 14.2773 21.7236 14.3396L21.7236 23.3845C21.0586 23.5151 20.5568 24.1006 20.5568 24.8037C20.5568 24.9675 20.5898 25.1216 20.6397 25.2681ZM32.0073 29.322C31.6871 29.3853 31.4096 29.5559 31.2032 29.7913L24.7311 26.0547L23.3687 25.2681C23.4185 25.1216 23.4516 24.9675 23.4516 24.8037C23.4516 24.1006 22.9492 23.5151 22.2843 23.3845L22.2843 14.3396C22.6016 14.2773 22.8769 14.1086 23.0833 13.8765L25.3759 15.2L30.8831 18.3796C30.8573 18.4878 30.8405 18.5994 30.8405 18.7156C30.8405 19.4192 31.3423 20.0042 32.0073 20.1353L32.0073 29.322ZM1.71796 14.3408C2.03702 14.2803 2.31567 14.1133 2.52313 13.8799L4.80963 15.2L10.3342 18.3896C10.3101 18.4951 10.2944 18.6033 10.2944 18.7156C10.2944 19.4119 10.7861 19.9922 11.4404 20.1309L11.4404 29.3259C11.1259 29.3926 10.8539 29.5647 10.651 29.7991L2.81021 25.2725C2.86124 25.1245 2.89432 24.9692 2.89432 24.8037C2.89432 24.0972 2.38745 23.5112 1.71796 23.3835L1.71796 14.3408ZM42.2904 14.3413L42.2904 35.2571C41.6165 35.3811 41.1051 35.9688 41.1051 36.678C41.1051 36.8445 41.1393 37.0027 41.1909 37.1506L33.3715 41.6655C33.1651 41.4299 32.887 41.259 32.568 41.1963L32.568 32.1604C33.233 32.0298 33.7348 31.4443 33.7348 30.7417C33.7348 30.0381 33.233 29.4526 32.568 29.322L32.568 20.1353C33.233 20.0046 33.7348 19.4192 33.7348 18.7156C33.7348 18.5994 33.7174 18.4878 33.6916 18.3796L41.1573 14.0693L41.4791 13.8833C41.6888 14.1165 41.9692 14.2825 42.2904 14.3413ZM20.9201 35.7288L13.1035 31.2148C13.1556 31.0664 13.1892 30.9077 13.1892 30.7412C13.1892 30.574 13.1556 30.416 13.1035 30.2668L20.9201 25.7537C21.1853 26.0564 21.5699 26.2515 22.0039 26.2515C22.4385 26.2515 22.8231 26.0564 23.0883 25.7537L25.3759 27.0747L30.9229 30.2769C30.873 30.4238 30.8405 30.5779 30.8405 30.7417C30.8405 30.9048 30.873 31.0586 30.9229 31.2053L23.0883 35.7288C22.8231 35.426 22.4385 35.2307 22.0039 35.2307C21.5699 35.2307 21.1853 35.426 20.9201 35.7288ZM21.7236 47.1335C21.4045 47.1965 21.1264 47.3674 20.9201 47.603L2.81021 37.1467C2.86124 36.9993 2.89432 36.8428 2.89432 36.678C2.89432 35.9722 2.38745 35.3855 1.71796 35.2583L1.71796 26.2241C2.03979 26.1636 2.32016 25.9937 2.52817 25.7576L10.3745 30.2876C10.3263 30.4312 10.2944 30.5813 10.2944 30.7412C10.2944 31.5403 10.9425 32.189 11.7421 32.189C12.1721 32.189 12.554 31.9971 12.8192 31.6995L20.6397 36.2144C20.5898 36.3606 20.5568 36.5149 20.5568 36.678C20.5568 37.3816 21.0586 37.9666 21.7236 38.0977L21.7236 47.1335ZM60.1777 28.1714C60.2966 28.0574 60.4371 28 60.6006 28L62.4 28C62.5629 28 62.704 28.0574 62.8223 28.1714C62.9406 28.2859 63 28.4216 63 28.5786L63 42.4219C63 42.5791 62.9406 42.7146 62.8223 42.8286C62.704 42.9434 62.5629 43 62.4 43L60.6006 43C60.4371 43 60.2966 42.9434 60.1777 42.8286C60.0589 42.7146 60 42.5791 60 42.4219L60 28.5786C60 28.4216 60.0589 28.2859 60.1777 28.1714ZM78.2345 28.1714C78.3505 28.0574 78.4882 28 78.6484 28L80.4125 28C80.5721 28 80.7099 28.0574 80.8264 28.1714C80.9423 28.2859 81 28.4216 81 28.5786L81 42.4219C81 42.5791 80.9423 42.7146 80.8264 42.8286C80.7099 42.9434 80.5721 43 80.4125 43L78.8875 43C78.6411 43 78.4524 42.9355 78.3219 42.8071C78.1908 42.6787 78.0962 42.5791 78.0385 42.5068L71.9402 33.593L71.9402 42.4219C71.9402 42.5791 71.882 42.7146 71.7661 42.8286C71.6501 42.9434 71.5112 43 71.3516 43L69.588 43C69.4279 43 69.2906 42.9434 69.1742 42.8286C69.0577 42.7146 69 42.5791 69 42.4219L69 28.5786C69 28.4216 69.0577 28.2859 69.1742 28.1714C69.2906 28.0574 69.4279 28 69.588 28L71.113 28C71.3589 28 71.5482 28.064 71.6787 28.1929C71.8092 28.3213 71.9038 28.4216 71.9621 28.4927L78.0604 37.407L78.0604 28.5786C78.0604 28.4216 78.118 28.2859 78.2345 28.1714ZM86.1748 28.1714C86.2911 28.0574 86.4294 28 86.5901 28L97.4099 28C97.57 28 97.7083 28.0574 97.8252 28.1714C97.9415 28.2859 98 28.4216 98 28.5786L98 30.0999C98 30.2576 97.9415 30.3931 97.8252 30.5071C97.7083 30.6218 97.57 30.678 97.4099 30.678L93.4754 30.678L93.4754 42.4219C93.4754 42.5791 93.417 42.7146 93.3006 42.8286C93.1837 42.9434 93.0449 43 92.8853 43L91.1147 43C90.9546 43 90.8163 42.9434 90.6994 42.8286C90.5825 42.7146 90.5246 42.5791 90.5246 42.4219L90.5246 30.678L86.5901 30.678C86.4294 30.678 86.2911 30.6218 86.1748 30.5071C86.0579 30.3931 86 30.2576 86 30.0999L86 28.5786C86 28.4216 86.0579 28.2859 86.1748 28.1714ZM105.012 36.7644L105.012 40.3213L112.398 40.3213Q112.643 40.3213 112.822 40.4934C112.94 40.6079 113 40.7434 113 40.9006L113 42.4226C113 42.5796 112.94 42.7151 112.822 42.8291C112.702 42.9438 112.561 43 112.398 43L102.603 43C102.439 43 102.298 42.9438 102.178 42.8291C102.059 42.7151 102 42.5796 102 42.4226L102 28.5781C102 28.4209 102.059 28.2854 102.178 28.1709C102.298 28.0566 102.439 28 102.603 28L112.219 28C112.383 28 112.524 28.0566 112.643 28.1709C112.762 28.2854 112.822 28.4209 112.822 28.5781L112.822 30.0994C112.822 30.2571 112.762 30.3926 112.643 30.5066C112.524 30.6213 112.383 30.678 112.219 30.678L105.012 30.678L105.012 34.0857L111.728 34.0857C111.892 34.0857 112.033 34.1426 112.152 34.2571C112.271 34.3718 112.331 34.5073 112.331 34.6643L112.331 36.1858C112.331 36.3428 112.271 36.479 112.152 36.593C112.033 36.707 111.892 36.7644 111.728 36.7644L105.012 36.7644ZM124.108 35.0222C124.222 34.9041 124.357 34.8445 124.514 34.8445L129.424 34.8445C129.58 34.8445 129.715 34.9041 129.829 35.0222C129.942 35.1411 130 35.2817 130 35.4446L130 37.8887C130 38.7778 129.864 39.5959 129.594 40.3445C129.324 41.0933 128.919 41.7371 128.377 42.2783C127.836 42.8188 127.161 43.2412 126.35 43.5447C125.539 43.8479 124.592 44 123.511 44C122.429 44 121.49 43.8521 120.693 43.5554C119.896 43.26 119.234 42.8445 118.708 42.3115C118.181 41.7778 117.778 41.1372 117.501 40.3887C117.224 39.6411 117.07 38.8223 117.042 37.9331C117.029 37.6521 117.017 37.3406 117.01 36.9995C117.003 36.6594 117 36.3108 117 35.9553C117 35.6001 117.003 35.252 117.01 34.9114C117.017 34.5708 117.029 34.2595 117.042 33.9778C117.07 33.0891 117.227 32.2783 117.513 31.5447C117.796 30.8108 118.209 30.1816 118.75 29.6555C119.291 29.1296 119.956 28.7217 120.745 28.4331C121.536 28.144 122.458 28 123.511 28C124.749 28 125.77 28.1663 126.574 28.4995C127.378 28.8333 128.018 29.2332 128.495 29.7C128.972 30.1663 129.307 30.6479 129.498 31.1445C129.69 31.6411 129.801 32.0593 129.829 32.3999C129.843 32.5776 129.79 32.7222 129.67 32.8333C129.548 32.9446 129.41 32.9995 129.252 32.9995L127.524 32.9995C127.367 32.9995 127.242 32.9595 127.151 32.8782C127.057 32.7966 126.99 32.7114 126.947 32.6223C126.919 32.5635 126.844 32.4331 126.724 32.2336C126.602 32.0337 126.41 31.8262 126.147 31.6108C125.883 31.3965 125.539 31.2041 125.112 31.0332C124.685 30.8628 124.151 30.7778 123.511 30.7778C122.443 30.7778 121.589 31.0776 120.949 31.6777C120.309 32.2783 119.967 33.0818 119.924 34.0891C119.896 34.6521 119.881 35.2554 119.881 35.8999C119.881 36.5447 119.896 37.1479 119.924 37.7114C119.967 38.9412 120.309 39.8333 120.949 40.3887C121.589 40.9446 122.443 41.2222 123.511 41.2222C124.037 41.2222 124.521 41.1633 124.962 41.0447C125.403 40.9263 125.784 40.7336 126.104 40.4668C126.424 40.2 126.673 39.8486 126.851 39.4114C127.029 38.9749 127.118 38.4373 127.118 37.8L127.118 37.6223L124.514 37.6223C124.357 37.6223 124.222 37.5635 124.108 37.4446C123.994 37.3262 123.938 37.1858 123.938 37.0222L123.938 35.4446C123.938 35.2817 123.994 35.1411 124.108 35.0222ZM143.918 37C144.864 36.6433 145.582 36.0974 146.071 35.3606C146.559 34.6255 146.803 33.7361 146.803 32.6931C146.803 31.2219 146.329 30.0713 145.382 29.2427C144.434 28.4143 143.05 28 141.23 28L135.591 28C135.43 28 135.291 28.0574 135.175 28.1714C135.058 28.2859 135 28.4216 135 28.5786L135 42.4219C135 42.5791 135.058 42.7146 135.175 42.8286C135.291 42.9434 135.43 43 135.591 43L137.36 43C137.521 43 137.66 42.9434 137.776 42.8286C137.892 42.7146 137.951 42.5791 137.951 42.4219L137.951 37.4292L140.858 37.4292L143.721 42.4219C143.779 42.5361 143.877 42.6611 144.016 42.7966C144.154 42.9329 144.369 43 144.661 43L146.519 43C146.65 43 146.762 42.9543 146.857 42.8611C146.952 42.7681 147 42.6577 147 42.5288C147 42.4578 146.978 42.3789 146.934 42.293L143.918 37ZM160.558 28.728C160.47 28.4861 160.366 28.3037 160.248 28.1819C160.13 28.0605 159.953 28 159.717 28L157.284 28C157.047 28 156.871 28.0605 156.752 28.1819C156.634 28.3037 156.531 28.4861 156.443 28.728L151.022 42.2715C151.007 42.3145 151 42.3652 151 42.4226C151 42.5796 151.059 42.7151 151.177 42.8291C151.295 42.9438 151.435 43 151.598 43L153.19 43C153.485 43 153.692 42.9399 153.81 42.8181C153.927 42.6975 154.009 42.5796 154.053 42.4648L155.005 40.0862L161.995 40.0862L162.947 42.4648C162.992 42.5796 163.072 42.6975 163.191 42.8181C163.308 42.9399 163.516 43 163.81 43L165.403 43C165.565 43 165.705 42.9438 165.824 42.8291C165.941 42.7151 166 42.5796 166 42.4226C166 42.3652 165.993 42.3145 165.978 42.2715L160.558 28.728ZM167.175 28.1714C167.292 28.0574 167.43 28 167.591 28L178.41 28C178.57 28 178.708 28.0574 178.825 28.1714C178.942 28.2859 179 28.4216 179 28.5786L179 30.0999C179 30.2576 178.942 30.3931 178.825 30.5071C178.708 30.6218 178.57 30.678 178.41 30.678L174.476 30.678L174.476 42.4219C174.476 42.5791 174.417 42.7146 174.301 42.8286C174.184 42.9434 174.046 43 173.885 43L172.116 43C171.955 43 171.817 42.9434 171.7 42.8286C171.583 42.7146 171.525 42.5791 171.525 42.4219L171.525 30.678L167.591 30.678C167.43 30.678 167.292 30.6218 167.175 30.5071C167.059 30.3931 167 30.2576 167 30.0999L167 28.5786C167 28.4216 167.059 28.2859 167.175 28.1714ZM195.956 34.0222C195.912 33.1777 195.751 32.3926 195.473 31.6663C195.195 30.9412 194.792 30.304 194.265 29.7561C193.738 29.208 193.079 28.7778 192.289 28.4668C191.498 28.1555 190.568 28 189.5 28C188.416 28 187.479 28.1594 186.689 28.4778C185.898 28.7966 185.24 29.2258 184.713 29.7668C184.185 30.3074 183.786 30.9446 183.516 31.6777C183.244 32.4109 183.087 33.1926 183.044 34.0222C183.028 34.304 183.018 34.6147 183.01 34.9553C183.003 35.2966 183 35.6479 183 36.0115C183 36.3748 183.003 36.7263 183.01 37.0669C183.018 37.4075 183.028 37.7188 183.044 38C183.087 38.8296 183.244 39.6113 183.516 40.3445C183.786 41.0776 184.185 41.7148 184.713 42.2561C185.24 42.7966 185.898 43.2222 186.689 43.5332C187.479 43.8445 188.416 44 189.5 44C190.568 44 191.501 43.8445 192.299 43.5332C193.097 43.2222 193.76 42.7966 194.287 42.2561C194.815 41.7148 195.213 41.0776 195.484 40.3445C195.755 39.6113 195.912 38.8296 195.956 38C195.971 37.7188 195.981 37.4075 195.989 37.0669C195.996 36.7263 196 36.3748 196 36.0115C196 35.6479 195.996 35.2966 195.989 34.9553C195.981 34.6147 195.971 34.304 195.956 34.0222ZM212.934 42.293L209.918 37C210.865 36.6433 211.582 36.0974 212.07 35.3606C212.559 34.6255 212.803 33.7361 212.803 32.6931C212.803 31.2219 212.329 30.0713 211.382 29.2427C210.434 28.4143 209.051 28 207.229 28L201.591 28C201.43 28 201.292 28.0574 201.176 28.1714C201.059 28.2859 201 28.4216 201 28.5786L201 42.4219C201 42.5791 201.059 42.7146 201.176 42.8286C201.292 42.9434 201.43 43 201.591 43L203.361 43C203.521 43 203.66 42.9434 203.776 42.8286C203.893 42.7146 203.951 42.5791 203.951 42.4219L203.951 37.4292L206.858 37.4292L209.721 42.4219C209.779 42.5361 209.878 42.6611 210.016 42.7966C210.155 42.9329 210.37 43 210.661 43L212.518 43C212.65 43 212.763 42.9543 212.858 42.8611C212.952 42.7681 213 42.6577 213 42.5288C213 42.4578 212.978 42.3789 212.934 42.293ZM143.108 34.3213C142.613 34.6079 141.95 34.75 141.12 34.75L137.951 34.75L137.951 30.6785L141.12 30.6785C141.95 30.6785 142.613 30.8147 143.108 31.0857C143.604 31.3574 143.852 31.8931 143.852 32.6931C143.852 33.4932 143.604 34.0359 143.108 34.3213ZM209.109 34.3213C208.614 34.6079 207.95 34.75 207.12 34.75L203.951 34.75L203.951 30.6785L207.12 30.6785C207.95 30.6785 208.614 30.8147 209.109 31.0857C209.604 31.3574 209.852 31.8931 209.852 32.6931C209.852 33.4932 209.604 34.0359 209.109 34.3213ZM192.992 37.8887C192.933 38.9553 192.593 39.7778 191.97 40.3555C191.348 40.9331 190.524 41.2222 189.5 41.2222C188.475 41.2222 187.651 40.9331 187.029 40.3555C186.407 39.7778 186.066 38.9553 186.008 37.8887C185.979 37.3262 185.965 36.7 185.965 36.0115C185.965 35.3223 185.979 34.6965 186.008 34.1331C186.066 33.0669 186.407 32.2405 187.029 31.6555C187.651 31.0703 188.475 30.7778 189.5 30.7778C190.524 30.7778 191.348 31.0703 191.97 31.6555C192.593 32.2405 192.933 33.0669 192.992 34.1331C193.021 34.6965 193.035 35.3223 193.035 36.0115C193.035 36.7 193.021 37.3262 192.992 37.8887ZM156.067 37.4075L158.5 31.2996L160.934 37.4075L156.067 37.4075ZM32.0073 41.1963C31.3423 41.3269 30.8405 41.9124 30.8405 42.6155C30.8405 42.7786 30.873 42.9333 30.9229 43.0791L23.0883 47.603C22.882 47.3674 22.6044 47.1965 22.2843 47.1335L22.2843 38.0977C22.9492 37.9666 23.4516 37.3816 23.4516 36.678C23.4516 36.5149 23.4185 36.3606 23.3687 36.2144L31.2032 31.6909C31.4096 31.9265 31.6871 32.0981 32.0073 32.1604L32.0073 41.1963Z" id="logo-MI" fill="#FFFFFF" fill-rule="evenodd" stroke="none" />
</svg>