<?xml version="1.0" encoding="utf-8"?>
<svg width="202px" height="36px" viewBox="0 0 202 36" version="1.1" xmlns:xlink="http://www.w3.org/1999/xlink" xmlns="http://www.w3.org/2000/svg">
  <path d="M20.2861 18.0996L18.6695 16.4883C17.7778 15.5996 17.7778 14.1521 18.6695 13.2632C19.1159 12.8196 19.7015 12.5964 20.2861 12.5964C20.8718 12.5964 21.4575 12.8196 21.9039 13.2632C22.336 13.6941 22.5741 14.2671 22.5741 14.8745C22.5741 15.4846 22.336 16.0564 21.9039 16.4883L20.2861 18.0996ZM23.5871 18.166C24.4704 17.2869 24.9561 16.1182 24.9561 14.8745C24.9561 13.6323 24.4704 12.4636 23.5871 11.5854C21.7681 9.77002 18.8064 9.77002 16.9862 11.5854C15.1649 13.3997 15.1649 16.3506 16.9862 18.166L18.6028 19.7773L16.9897 21.3865C16.0969 22.2751 14.647 22.2751 13.7554 21.3865L11.296 18.9351L9.61151 20.6128L12.0721 23.0642C12.9531 23.9434 14.1256 24.4275 15.372 24.4275C16.6196 24.4275 17.7921 23.9434 18.6743 23.0642L20.2861 21.4565L23.3086 24.4678L24.9918 22.7888L21.9705 19.7773L23.5871 18.166ZM18.0588 33.6257C9.41388 33.6257 2.38202 26.6167 2.38202 18C2.38202 9.3833 9.41388 2.37305 18.0588 2.37305C26.7037 2.37305 33.7367 9.3833 33.7367 18C33.7367 26.6167 26.7037 33.6257 18.0588 33.6257L18.0588 33.6257ZM18.0588 0C8.10205 0 0 8.07446 0 18C0 27.9243 8.10205 36 18.0588 36C28.0167 36 36.1176 27.9243 36.1176 18C36.1176 8.07446 28.0167 0 18.0588 0L18.0588 0ZM195.913 20.741L202 28.0964L198.528 28.1155L194.197 22.8423L192.38 25.1787L192.394 28.1011L189.706 28.1011L189.706 8.48511L192.392 8.48511L192.392 20.9141L197.643 14.1272L201.017 14.1272L195.913 20.741ZM107.737 21.1895C107.718 23.4854 105.855 25.3413 103.555 25.3413C101.247 25.3413 99.3745 23.4653 99.3745 21.155C99.3745 18.8438 101.247 16.97 103.555 16.97C105.855 16.97 107.718 18.8247 107.737 21.1206L107.737 21.1895ZM110.535 21.0103L110.535 14.165L107.737 14.165L107.737 15.564C106.571 14.6895 105.127 14.165 103.555 14.165C99.6971 14.165 96.5698 17.2939 96.5698 21.155C96.5698 25.0161 99.6971 28.145 103.555 28.145C105.127 28.145 106.571 27.6206 107.737 26.7461L107.737 28.4797C107.737 29.1904 107.5 29.7778 107.027 30.2405C106.554 30.7056 105.89 30.937 105.034 30.937L102.154 30.937L102.154 33.7373L105.117 33.7373C106.19 33.7373 107.154 33.4727 108.009 32.9458C108.865 32.4165 109.499 31.7866 109.913 31.0544C110.328 30.321 110.535 29.4622 110.535 28.4797L110.535 21.2986C110.536 21.2512 110.541 21.2036 110.541 21.155C110.541 21.1052 110.536 21.0588 110.535 21.0103L110.535 21.0103ZM86.7821 25.3115C84.4715 25.3115 82.6002 23.4368 82.6002 21.1255C82.6002 18.8152 84.4715 16.9392 86.7821 16.9392C89.0916 16.9392 90.9653 18.8152 90.9653 21.1255C90.9653 23.4368 89.0916 25.3115 86.7821 25.3115L86.7821 25.3115ZM93.7628 8.54321L90.9819 8.54321L90.9653 15.5366C89.7987 14.6611 88.3535 14.1355 86.7821 14.1355C82.924 14.1355 79.7967 17.2656 79.7967 21.1255C79.7967 24.9863 82.924 28.1155 86.7821 28.1155C88.3535 28.1155 89.7987 27.5908 90.9653 26.7153L90.9653 28.1155L93.7628 28.0583L93.7628 21.2285C93.7628 21.1931 93.7687 21.1597 93.7687 21.1255C93.7687 21.0911 93.7628 21.0579 93.7628 21.0234L93.7628 8.54321ZM66.2068 19.7856L66.2461 19.6516C66.5056 18.7605 66.9687 18.0723 67.6234 17.6038C68.2758 17.1362 69.1067 16.9001 70.0912 16.9001C71.1066 16.9001 71.9542 17.1387 72.6125 17.6084C73.272 18.0818 73.7136 18.77 73.9255 19.6565L73.9565 19.7856L66.2068 19.7856ZM73.5684 15.0549C72.5292 14.4451 71.3423 14.1355 70.0435 14.1355C68.7686 14.1355 67.5793 14.45 66.5115 15.0669C65.4437 15.6863 64.589 16.5405 63.97 17.6096C63.3533 18.6799 63.0391 19.8689 63.0391 21.1443C63.0391 22.0925 63.2283 23.0049 63.601 23.8557C63.9747 24.7075 64.4843 25.4492 65.1176 26.0591C65.7521 26.6702 66.5223 27.1614 67.408 27.5186C68.2948 27.8757 69.2507 28.0583 70.2459 28.0583C72.3744 28.0583 74.147 27.2493 75.5159 25.6555C75.9874 25.0767 76.3254 24.5022 76.5195 23.9482L73.1827 23.9482C72.7625 24.4312 72.3256 24.7776 71.8816 24.9805C71.4268 25.1882 70.853 25.2925 70.1745 25.2925C69.1971 25.2925 68.3567 25.0457 67.677 24.5593C66.9925 24.0703 66.5437 23.3977 66.3413 22.5598L66.3091 22.4307L76.8052 22.4307C76.8706 22.0735 76.9052 21.689 76.9052 21.2878C76.9052 19.9316 76.6088 18.6929 76.0195 17.6072C75.4338 16.5239 74.61 15.6648 73.5684 15.0549L73.5684 15.0549ZM149.158 16.957L144.948 16.957L144.948 16.9512L144.948 11.3601L148.169 11.3601L149.047 11.3601C149.084 11.3577 149.121 11.353 149.158 11.353C150.706 11.353 151.958 12.6084 151.958 14.1567C151.958 15.7017 150.706 16.957 149.158 16.957L149.158 16.957ZM148.591 8.56323L142.174 8.54321L142.174 28.1367L144.967 28.1367L144.948 19.749L148.033 19.749C149.162 19.749 150.068 19.6138 150.756 19.3455C151.443 19.0762 152.115 18.6763 152.775 18.1423C153.435 17.6108 153.906 17.072 154.188 16.5251C154.56 15.7979 154.747 14.9338 154.747 14.1152C154.747 12.6321 154.194 11.3718 153.09 10.3396C151.984 9.30615 150.484 8.56323 148.591 8.56323L148.591 8.56323ZM176.077 19.8201L176.115 19.6873C176.375 18.7961 176.839 18.1067 177.494 17.6394C178.145 17.1729 178.976 16.9368 179.962 16.9368C180.976 16.9368 181.825 17.1753 182.483 17.644C183.142 18.1187 183.584 18.8069 183.796 19.6921L183.826 19.8201L176.077 19.8201ZM186.774 21.3223C186.774 19.9661 186.477 18.7285 185.89 17.6428C185.303 16.5596 184.479 15.7017 183.439 15.0906C182.398 14.4795 181.213 14.1709 179.914 14.1709C178.638 14.1709 177.449 14.4841 176.382 15.1025C175.313 15.7207 174.458 16.5762 173.84 17.6453C173.223 18.7156 172.91 19.9043 172.91 21.1799C172.91 22.1292 173.099 23.0405 173.471 23.8911C173.844 24.7432 174.355 25.4849 174.988 26.0935C175.621 26.7058 176.393 27.197 177.277 27.5542C178.165 27.9124 179.12 28.094 180.116 28.094C182.245 28.094 184.017 27.2847 185.385 25.6912C185.857 25.1111 186.195 24.5378 186.39 23.9839L183.052 23.9839C182.633 24.4668 182.196 24.8132 181.752 25.0161C181.297 25.2227 180.722 25.3281 180.044 25.3281C179.068 25.3281 178.227 25.0813 177.546 24.595C176.863 24.106 176.413 23.4331 176.209 22.5942L176.178 22.4673L186.673 22.4673C186.74 22.1091 186.774 21.7246 186.774 21.3223L186.774 21.3223ZM159.37 19.7632L159.408 19.6292C159.667 18.738 160.131 18.0486 160.784 17.5811C161.437 17.1147 162.268 16.8787 163.253 16.8787C164.268 16.8787 165.117 17.1172 165.775 17.5859C166.435 18.0605 166.875 18.7488 167.087 19.635L167.118 19.7632L159.37 19.7632ZM166.731 15.0325C165.691 14.4214 164.503 14.114 163.205 14.114C161.929 14.114 160.741 14.426 159.673 15.0454C158.604 15.6626 157.751 16.5181 157.133 17.5872C156.515 18.6584 156.202 19.8474 156.202 21.123C156.202 22.071 156.391 22.9824 156.763 23.833C157.136 24.6863 157.647 25.4265 158.279 26.0354C158.914 26.6477 159.684 27.1389 160.57 27.4961C161.458 27.8542 162.412 28.0359 163.408 28.0359C165.537 28.0359 167.309 27.2266 168.678 25.6343C169.149 25.053 169.487 24.4797 169.681 23.9255L166.343 23.9255C165.925 24.4087 165.487 24.7551 165.044 24.958C164.59 25.1655 164.015 25.27 163.336 25.27C162.359 25.27 161.52 25.0244 160.839 24.5366C160.154 24.0491 159.705 23.375 159.502 22.5374L159.471 22.4092L169.966 22.4092C170.032 22.0508 170.067 21.6677 170.067 21.2654C170.067 19.908 169.769 18.6704 169.182 17.5847C168.595 16.5015 167.772 15.6436 166.731 15.0325L166.731 15.0325ZM116.504 19.8142L116.542 19.6802C116.801 18.7903 117.265 18.0996 117.919 17.6321C118.571 17.167 119.402 16.9297 120.388 16.9297C121.402 16.9297 122.251 17.1682 122.909 17.6382C123.569 18.1116 124.009 18.801 124.222 19.686L124.252 19.8142L116.504 19.8142ZM127.202 21.3152C127.202 19.959 126.904 18.7214 126.316 17.6357C125.729 16.5525 124.906 15.6946 123.865 15.0847C122.825 14.4736 121.639 14.165 120.339 14.165C119.064 14.165 117.876 14.4771 116.808 15.0964C115.739 15.7136 114.885 16.5703 114.267 17.6382C113.649 18.7095 113.336 19.8984 113.336 21.1741C113.336 22.1221 113.525 23.0344 113.898 23.884C114.27 24.7373 114.781 25.4775 115.413 26.0876C116.048 26.6987 116.819 27.1899 117.703 27.5481C118.592 27.9065 119.546 28.0881 120.543 28.0881C122.671 28.0881 124.443 27.2776 125.813 25.6853C126.283 25.105 126.621 24.5308 126.815 23.9766L123.478 23.9766C123.059 24.4595 122.621 24.8071 122.178 25.009C121.724 25.2166 121.15 25.321 120.47 25.321C119.493 25.321 118.653 25.0754 117.974 24.5889C117.288 24.1001 116.839 23.4272 116.637 22.5884L116.605 22.4602L127.101 22.4602C127.166 22.1018 127.202 21.7188 127.202 21.3152L127.202 21.3152ZM51.9503 25.1882L60.2868 25.1882L60.2868 27.979L49.173 27.979L49.173 8.4624L51.9514 8.4624L51.9503 25.1882ZM132.893 21.1255L132.896 25.3198L132.905 25.3198L132.896 28.1248L130.101 28.1248L130.101 21.1255L130.101 21.0588L130.101 14.1355L132.893 14.1401L132.893 15.5344C134.06 14.6563 135.512 14.1355 137.086 14.1355L137.086 14.1401L138.481 14.1401L138.481 16.938L137.086 16.938L137.086 16.9392C134.778 16.9392 132.904 18.8152 132.904 21.1255L132.893 21.1255Z" id="ledgerpeek-logo" fill="#172B29" fill-rule="evenodd" stroke="none" />
</svg>