<svg xmlns="http://www.w3.org/2000/svg" viewBox="0 0 350 73"><path d="M238.45,30c2.58-5.64,4.41-11,6.36-16.54a107.37,107.37,0,0,0-12.58,8.81c2.4,2.26,5.06,4.09,6.22,7.73M222,31.34a18.59,18.59,0,0,0-3.33,3.13,5.48,5.48,0,0,1-2.24,1.71c-.68.17-1.56.61-2.06-.38a1.68,1.68,0,0,1,.49-2.09A28.8,28.8,0,0,1,217.75,31c1.33-1,2.28-2.43,3.76-3.25.59-.32.66-.93.86-1.49.79-2.24,2.14-4,4.59-4.48s3.79-2.31,5.61-3.58c3.21-2.24,5.89-5.15,9.17-7.35,1.49-1,3.3-.73,4.77-1.8.83-.6,2,1,1.61,2.46a36.5,36.5,0,0,1-1.52,4.93q-2.68,6.78-5.54,13.48a14,14,0,0,0-1.28,6.24c.1,1.77-1.09,1.91-2.25,2.07s-1.05-.75-.87-1.34c1.47-4.82-1.12-8.2-4-11.48-1.52-1.75-2.67-1.7-4.34,0a27.72,27.72,0,0,1-3.05,3c-1.68,1.23-.93,4.24,1.27,5.43.51.27,1.3.33.91,1.16s-1,.38-1.57.25c-2.08-.45-3.07-2-3.86-3.9M46.59,23.09c-.06-.1-.13-.25-.16-.25S46.15,23,46,23a1.2,1.2,0,0,0,.13.26c.15-.05.29-.13.45-.2M85,22.61a6.74,6.74,0,0,0,5.09,1.22C88.8,20.77,87,20.27,85,22.61m-2.58,1.23a35.31,35.31,0,0,0-4.58,8.78c-.55,1.76,0,2.35,1.81,2a17.4,17.4,0,0,0,6.16-2.24,10.56,10.56,0,0,0,4.81-5.58c-3-.52-6-.27-8.2-3m-52.69,11a48.23,48.23,0,0,1-9.16,3.76c-4.92,1.61-10,2.83-15.28,1.55C2.62,39.5.12,35.84,0,32.6-.19,26.39,2.21,21,5.75,16.24A47.57,47.57,0,0,1,25.54,1,12.94,12.94,0,0,1,30.59,0c2.67,0,4.47,2,4.59,5a8.52,8.52,0,0,1-1.67,5.86c-1.7,2.23-3.24,4.56-5.54,6.24a4.35,4.35,0,0,1-1.18.77c-.65.19-1.51.52-1.94-.26s.2-1.38.86-1.89a30.6,30.6,0,0,0,7-8.2,3.45,3.45,0,0,0-.31-4c-.93-1.19-3.76-1.63-5.32-1A51.21,51.21,0,0,0,8.38,16.38,26.67,26.67,0,0,0,1.91,30.92c-.38,3,2.67,7.89,7.42,7.54a55.16,55.16,0,0,0,17.18-4.32A21.1,21.1,0,0,0,36,26.65a133.42,133.42,0,0,1,12-14.33,75.13,75.13,0,0,1,6.49-6.38,2.71,2.71,0,0,1,2.9-.37C55.7,9.3,52,11.05,49.65,14s-5.13,5.46-7.8,8.26c1,.44,1.55-.16,2.11-.54,1.61-1.11,3.2-2.25,4.84-3.33.58-.38,1.21-.8,1.91-.05A1.59,1.59,0,0,1,51,20.38c-1.5,3.06-3.81,5.58-5.57,8.46-1,1.6-2.36,3-2.38,5.2,2.21.73,4-.46,5.82-1.32,4.66-2.2,7.58-6.22,10.48-10.21.69-.94,1.3-1.46,2.29-.84s.69,1.72.15,2.5C61,25.28,60,26.24,59.15,27.31c-1.38,1.78-2.72,3.6-4,5.43a1.69,1.69,0,0,0-.39,1.77c2.09.41,3.86-.68,5.7-1.43,4.27-1.73,6.8-5.43,9.79-8.63.93-1,1.9-2,2.86-2.93a1.07,1.07,0,0,1,1.27-.38,1.27,1.27,0,0,1,.75,1.3,3.81,3.81,0,0,1-1.23,2.68c-1.47,1.65-3,3.22-4.53,4.83a6.84,6.84,0,0,0-2,2.74,2.28,2.28,0,0,0,2.78.25c3.53-1.54,6.71-3.37,8.42-7.22a44,44,0,0,1,7.94-11.41C88.76,11.72,91,9.07,93.3,6.44c.5-.57,1-1.09,1.83-.6a1.44,1.44,0,0,1,.56,2,10.66,10.66,0,0,1-1.38,2.07c-2.11,2.5-4.12,5.1-6.82,7a1.62,1.62,0,0,0-.86,1.23A7.2,7.2,0,0,1,93,23.45c.19.59.77.46,1.23.48l2,.11c.07,1.39-.36,2.31-1.72,2.51a1.8,1.8,0,0,0-1.64,1.56c-.67,2.5-2.65,4.12-4.57,5.53a21,21,0,0,1-8.13,3.5c-3.48.74-5.07-.45-5.3-4.11C71.42,35,68,37.23,63.8,34a20.53,20.53,0,0,1-4.48,2.19c-.74.22-1.45.56-2.2.74C54,37.64,52.8,37,51.61,34c-1.6.63-3.18,1.31-4.79,1.89a13,13,0,0,1-2.61.6c-1.24.17-2.68.43-3.47-.76s-.42-2.83.28-4.07c1.24-2.22,2.69-4.32,4-6.48.33-.53.89-1,.8-1.81a2.24,2.24,0,0,0-1.89.71c-1.5,2.23-4,3.37-5.62,5.45s-3.57,3.79-5,6a2.45,2.45,0,0,1-.73.77c-.6.34-1.19,1-1.92.74s-.48-1.23-.57-1.89l0-.42-.4.1m279.18-3.7c3.62-1.63,4.68-5.15,6.71-8.14-3.31-.05-7.16,4.73-6.71,8.14M267.51,31c2.57-.44,6.21-4.8,6.86-8.06-2.75.12-6.15,4.05-6.86,8.06m-12.94-4.82c4.82-.2,16.17-14.51,15.64-20-6.48,5.86-11,12.87-15.64,20m72.05,20.31a4.22,4.22,0,0,0-.73,0,3.11,3.11,0,0,0-.63.32c-6.12,3.77-11.4,8.41-14.94,14.78-1.16,2.07-2.42,4.13-2.39,6.63,0,1.81.53,2.14,2.14,1.46,2.93-1.25,4.72-3.79,6.5-6.18a112.73,112.73,0,0,0,10.05-17M270.22,33a3,3,0,0,0,3.1.63A23.92,23.92,0,0,0,283,28.79a50.12,50.12,0,0,1,10.85-6.39,1.89,1.89,0,0,1,2.47.29c.64.93.14,1.8-.65,2.5-1,.87-1.91,1.78-2.91,2.63a2.05,2.05,0,0,0-.56,2.6c1.37-1.31,2.63-2.44,3.81-3.63a155.06,155.06,0,0,1,13.86-11.73,16,16,0,0,1,3-1.59c.62-.29,1.32-.83,2-.19a1.9,1.9,0,0,1,.24,2.31c-1.85-1.06-2.86.4-4.1,1.36-5.87,4.58-11.23,9.74-16.68,14.8a1,1,0,0,0-.44,1c4,1.33,7.65.36,11.24-1.47.42-.21.47-.58.59-1,1.44-5.26,4.56-8.88,10-10.2,1.86-.45,2.61.12,2.16,1.95-1,4.05-2.06,8.14-6.14,10.41a3.44,3.44,0,0,0-.59.55,2.75,2.75,0,0,0,2.77.75,22.82,22.82,0,0,0,9.29-4.4c1.76-1.27,3.07-3.36,4.7-5,.84-.84,1.72-1.53,2.74-.69,1.3,1.06.31,2.1-.52,2.83-1.81,1.59-3,3.67-4.64,5.43a.85.85,0,0,0-.26,1.09,26.94,26.94,0,0,0,6.95-2.8,25.69,25.69,0,0,0,7.61-6.92c.54-.68,1.16-1.41,2.06-.8,1.06.72.56,1.71,0,2.51-1.37,2.1-3.2,3.83-4.67,5.87-2.27,3.15-3.58,6.74-5.5,10.32a12,12,0,0,0,3.6-1.39c4.18-1.72,8.27-3.67,12.82-4.27.69-.09,1.65-.68,1.88.54s-.7,1.57-1.63,1.7c-5.84.82-10.92,3.6-16.13,6.06a7.59,7.59,0,0,0-3.82,4,104,104,0,0,1-9.54,16.66,26.35,26.35,0,0,1-7.15,7.36,4.61,4.61,0,0,1-1.41.73c-3.9,1-5.86-1.23-4.65-5.51,1-3.64,3.14-6.74,5.33-9.8a49.44,49.44,0,0,1,6.62-7.6A36.44,36.44,0,0,1,326.15,44a5.91,5.91,0,0,0,3.15-3.2c.7-1.83,1.62-3.57,2.47-5.34A1.62,1.62,0,0,0,332,34c-.84-.25-1.48.27-2.16.57a12.29,12.29,0,0,1-6,1.35c-1.51-.11-2.65-.36-2.29-2.55-5.36,3.18-10.52,4.22-15.73.32-4,1.72-8.2,2.75-12.63,1.73a2.69,2.69,0,0,0-2.54.84,37.56,37.56,0,0,0-8.26,10.09,38.52,38.52,0,0,0-3.77,7c-.19.54-.31,1.52-1.25,1.09s-.44-1.18-.2-1.74c2.18-5,4.34-10,8-14.22,1.1-1.24,2.13-2.57,3.18-3.86.22-.28.61-.63.56-.87-.49-2.26.9-4.12,1.42-6.39a11.63,11.63,0,0,0-4.71,2.53,36.63,36.63,0,0,1-9.82,5.73c-3.46,1.2-6.67.54-9.82-1.06-1.15-.58-.64-1.85-1.26-2.68-1.37,1-2.69,2.12-4.1,3.06-2.68,1.79-5.55,2.94-8.89,2.25a2.77,2.77,0,0,1-2.37-2.88,8.47,8.47,0,0,1,.93-4.33,110.85,110.85,0,0,1,9.2-14.85c1.53-2.14,3.31-4,4.85-6.15a18.11,18.11,0,0,1,6-5c.93-.51,1.87-.4,2.1,1,.37,2.15-.41,4.08-1.15,6-2,5.19-5.52,9.29-9.31,13.19a14.44,14.44,0,0,1-4.25,3.18c-2.12,1-3.48,2.82-5.44,4-.86.5-.77,1.86-.41,2.82s1.21.82,2,.73a12.32,12.32,0,0,0,4.53-1.55,23.59,23.59,0,0,0,9.25-8.62A10.38,10.38,0,0,1,274.94,20c1.69-.34,2.46.29,2,2-1.05,4.11-2.15,8.23-6.29,10.51-.14.08-.23.25-.46.51m-72.14-11.4c-3.53,1.2-6.3,3-9.32,4.52,2.15,1.06,8.39-1.76,9.32-4.52M139.56,46.33a6.09,6.09,0,0,0-1.13.33c-6.28,3.83-11.72,8.53-15.31,15.08-1.13,2.07-2.44,4.13-2.37,6.64,0,1.66.62,2,2.12,1.37,3-1.28,4.89-3.93,6.73-6.42a109.75,109.75,0,0,0,10-17m5.53-12.87c-2.7,1-5.2,2.91-8.28,2.35a9.32,9.32,0,0,0-5.73.61,10.76,10.76,0,0,1-5.79.4c-2.55-.32-3.58-2.25-4-4.66-4.63,1.69-8.86,5.84-14.65,2.32-1.37.62-3.13,1.49-4.93,2.23-1.39.57-3,1.15-4.16-.17s-1-3-.25-4.52c2.2-4.58,6-7.58,10.18-10.17a23.82,23.82,0,0,1,5.43-2.18c1.73-.55,2.74-.07,3.14,1.34a3.26,3.26,0,0,1-1.94,3.81c-.69.18-1.06-.16-1-.84a5.78,5.78,0,0,1,.54-1.3c-4.91-.74-14.12,6.87-14.41,11.92a4.88,4.88,0,0,0,3.21-.68c1.13-.52,2.24-1.08,3.35-1.64a2.65,2.65,0,0,0,1.55-1.62c.51-2,2-3.32,3.47-4.57.68-.57,1.62-1.28,2.54-.44s.62,1.63,0,2.57a14,14,0,0,1-2.83,3.39c-.42.36-1,.61-1,1.5,1.4.68,2.72.11,4.06-.27,6.07-1.72,10.26-5.41,12-11.76a5.56,5.56,0,0,0-2.26.17c-1.12.13-2.24.32-3.36.4-.61,0-1.25-.15-1.34-.9s.6-.69,1.07-.89a10.42,10.42,0,0,1,4.69-.93c3,.2,4.71-1.45,6.24-3.59.84-1.16,1.69-2.31,2.5-3.49.49-.72,1.08-1.6,1.94-.91a1.78,1.78,0,0,1,.2,2.42c-.65.93-1.31,1.84-2,2.77a2.77,2.77,0,0,0-.79,1.95c.67.45,1.39.2,2.06.16q6.17-.42,12.32-.88c.9-.07,1.85-.26,2.09,1-.3.67-.92.49-1.42.54-4.72.49-9.44,1.33-14.16,1.3-2.82,0-4,1.31-5.26,3.26-1.51,2.39-3.66,4.4-4.19,7.36-.44,2.47.81,3.89,3.37,3.74a11,11,0,0,0,9.87-6.5c.94-1.88,2.88-2.93,4.3-4.42a1.44,1.44,0,0,1,2.1.15,1.35,1.35,0,0,1-.13,2.06,58.53,58.53,0,0,0-4.78,5.55c-.35.44-.91.81-.63,1.69,5.24-1.61,9.89-4,13.31-8.4.51-.66,1.1-1.25,1.62-1.89a1.15,1.15,0,0,1,1.59-.33,1.24,1.24,0,0,1,.47,1.72,9.43,9.43,0,0,1-1.24,2,43.92,43.92,0,0,0-6.34,8.74c-1,1.8-1.69,3.76-2.52,5.65-.16.15-.43.28-.21.55s.41.08.58-.09l10.81-4.53c-1.44-2.27-.51-4.2.83-6,2-2.8,4.09-5.57,6.08-8.38a1.36,1.36,0,0,1,1.87-.46c.84.35.89,1.08.61,1.81-.62,1.58-2,2.59-3,3.93-1.34,1.89-2.76,3.72-4.12,5.6a1.53,1.53,0,0,0-.29,1.52c2.12.56,3.9-.63,5.77-1.39,4.76-1.93,7.33-6.3,10.77-9.7.54-.54,1.08-1.08,1.61-1.64s.87-.84,1.55-.57.72,1.05.67,1.68a3.87,3.87,0,0,1-1.21,2.33c-1.5,1.61-3,3.19-4.55,4.8-.76.81-1.7,1.51-1.93,2.74a2.06,2.06,0,0,0,2.63.25c2.9-1.34,5.61-2.75,7.63-5.55a89.41,89.41,0,0,1,12.33-13.55c2.59-2.36,5.1-4.81,7.64-7.22,1.13-1.07,2.61-1.64,3.69-2.8a1.2,1.2,0,0,1,1.77.17c.54.62.1,1.09-.32,1.54-1.63,1.73-3.31,3.43-4.88,5.22-.62.7-1.52.43-2.2,1a100.06,100.06,0,0,0-10,9.64c-1.19,1.33-2.89,2.25-3.57,4.29a11.77,11.77,0,0,0,3.7-2.09c2.44-1.58,4.85-3.23,7.73-3.87,1.23-.27,2.68-.7,3.54.77.61,1-.07,3.49-1,4.47-1.61,1.65-3.78,2.17-5.83,2.91-1.23.45-2.52.7-3.76,1.14s-2.4.74-2.26,2.32c.1,1.2,1.75,2.44,3.13,2.48a9.89,9.89,0,0,0,3.31-.69c4-1.33,7.26-4,10.61-6.5.58-.43,1-1.09,1.78-.34s.62,1.42,0,2.15c-1.51,1.67-3.55,2.58-5.32,3.88-2.87,2.12-6.23,2.9-9.57,3.7-2.34.56-5.64-1.56-6.36-3.88-.21-.66-.34-1.35-.5-2-.65-.15-.91.32-1.21.65-1.88,2.14-4.1,4-5.7,6.4-.72,1.08-1.88,1.7-2.82,1.19-1.18-.65-.42-1.88.07-2.84a3.88,3.88,0,0,0,.19-.58c-2.71.53-5.44,1.68-7.76-1.16-1.38,1.44-3.79,1.32-4.9,3.35-.29.51-1,.59-1.59.69-6.35,1-11.91,4-17.49,6.95-1.21.63-1.58,1.82-2.05,2.84a109.21,109.21,0,0,1-9.68,16.79,28.76,28.76,0,0,1-5,5.61c-1.57,1.34-3,2.53-5.07,2.86s-2.55,0-3.12-2.06c-1-3.55.78-6.37,2.39-9.2a49.4,49.4,0,0,1,10-12.4,35.25,35.25,0,0,1,7.87-5.15,6.14,6.14,0,0,0,3.4-3.4c.91-2.38,2.13-4.64,3.22-6.94.12-.15.36-.31.11-.5s-.36,0-.47.22" fill="currentColor"/></svg>
